<svg version="1.1" id="Layer_1" xmlns="http://www.w3.org/2000/svg" xmlns:xlink="http://www.w3.org/1999/xlink" x="0px" y="0px"
	 width="100%" viewBox="0 0 512 512" enable-background="new 0 0 512 512" xml:space="preserve">
<path fill="#0153B4" opacity="1.000000" stroke="none" 
	d="
M1.000000,257.000000 
	C1.000000,246.645767 1.000000,236.291550 1.283083,225.692169 
	C1.758280,225.302399 1.950394,225.157806 2.474419,224.963425 
	C2.921722,224.817993 3.135514,224.719955 3.133287,224.627106 
	C3.127555,224.388092 3.026159,224.151352 2.977901,223.949631 
	C2.992812,223.985550 2.924477,223.948395 3.216398,224.221649 
	C6.633987,222.300949 9.924596,220.302795 12.833910,217.851990 
	C15.223875,215.838669 16.931923,216.124313 19.268425,217.924500 
	C24.848175,222.223450 30.638401,226.249237 36.343639,230.385315 
	C35.236706,223.961334 33.728115,218.015488 31.392086,212.414749 
	C29.390331,207.615463 29.970770,204.688232 34.673916,201.911224 
	C39.998253,198.767487 44.778481,194.702240 49.795292,191.037689 
	C42.192223,190.069763 34.948345,189.950058 27.712147,190.133469 
	C25.112368,190.199356 23.863317,189.374756 23.133045,186.884705 
	C21.173157,180.201965 18.990391,173.584564 16.948200,166.567810 
	C19.642202,160.106674 22.284142,154.018936 25.246803,148.060455 
	C29.221127,150.723038 32.874729,153.256363 37.543510,156.493576 
	C35.061138,148.760269 32.997360,142.330978 30.957272,135.544418 
	C33.032314,131.872787 35.083664,128.558456 37.483864,125.136047 
	C37.952446,124.917007 38.176926,124.800385 38.171326,124.696136 
	C38.157215,124.433479 38.039364,124.176392 37.977234,123.951553 
	C37.991379,123.986038 37.922760,123.956932 38.231712,124.200638 
	C42.309059,121.805771 46.077454,119.167183 50.542297,116.040955 
	C47.656208,115.539085 45.800701,115.216431 43.942741,114.534943 
	C57.391911,93.649635 74.010361,75.974037 92.678864,60.461372 
	C90.765656,67.428787 88.798798,74.030464 86.422676,82.005806 
	C93.243896,77.066895 99.050026,73.059555 104.615265,68.741730 
	C107.016373,66.878815 108.664871,66.905121 111.064621,68.768616 
	C116.680290,73.129379 122.552917,77.159248 129.400635,82.102028 
	C126.844925,74.158829 124.857346,67.370888 122.440315,60.739468 
	C121.315002,57.652023 122.022072,55.945004 124.627274,54.170956 
	C130.423584,50.223885 136.030014,45.997978 141.713852,41.885719 
	C141.586182,41.489723 141.458527,41.093731 141.330872,40.697735 
	C133.914352,40.697735 126.497841,40.697735 119.258270,40.414040 
	C119.900848,39.960011 120.406723,39.857708 120.826355,39.609573 
	C139.918442,28.320356 159.741821,18.722221 181.096466,12.364745 
	C194.120941,8.487236 207.145859,4.968513 220.762497,3.876647 
	C223.235977,3.678308 225.590546,1.996805 228.000000,0.999999 
	C237.354233,1.000000 246.708450,1.000000 256.531189,1.468657 
	C257.055969,20.209589 257.112183,38.481861 257.097839,57.235046 
	C257.073853,79.621826 257.120483,101.527687 257.107208,123.871407 
	C257.087524,146.247864 257.127747,168.186447 257.107422,190.582321 
	C257.031677,212.971481 257.016510,234.903351 256.537537,256.907043 
	C171.049149,256.985931 86.024574,256.992981 1.000000,257.000000 
M179.690918,80.938095 
	C186.288620,76.184868 192.886307,71.431641 199.661011,66.550880 
	C206.387299,71.403320 212.937592,76.128807 219.487885,80.854286 
	C218.599380,74.076271 216.980469,67.830734 214.636993,61.870056 
	C213.053085,57.841324 214.012604,55.684601 217.486328,53.429131 
	C223.001923,49.847904 228.178986,45.745289 234.690903,40.993721 
	C226.197220,40.993721 219.119553,40.810955 212.058548,41.074680 
	C208.774414,41.197346 207.459503,40.060368 206.568192,36.958313 
	C204.603394,30.120159 202.159943,23.419535 199.565552,15.622091 
	C197.025421,23.486057 194.722290,30.080217 192.804626,36.784641 
	C191.878113,40.023926 190.440384,41.264912 186.908173,41.093708 
	C179.920975,40.755032 172.905792,40.993740 164.607773,40.993740 
	C172.566589,46.802708 179.273224,51.697727 186.143646,56.712296 
	C185.434769,58.941479 184.736053,60.962700 184.149612,63.015987 
	C182.431778,69.030746 180.758652,75.058281 178.718521,80.925804 
	C178.812332,80.945435 178.906143,80.965065 179.690918,80.938095 
M87.640839,230.129761 
	C94.386551,225.342789 101.132263,220.555801 107.913208,215.743805 
	C114.940727,220.818314 121.667526,225.675690 129.422028,231.275146 
	C126.915855,223.445908 125.130806,216.865417 122.666473,210.549973 
	C121.203758,206.801407 122.161407,204.928665 125.306068,202.852417 
	C130.921265,199.145035 136.229706,194.973007 142.934967,190.067078 
	C134.438202,190.067078 127.517204,189.879959 120.613815,190.147415 
	C117.251015,190.277695 115.634941,189.397858 114.684654,185.955887 
	C112.799652,179.128296 110.319138,172.465103 107.772545,164.793472 
	C105.339882,172.180389 102.854591,178.378647 101.332466,184.805038 
	C100.248306,189.382324 98.040611,190.410019 93.733055,190.164551 
	C87.201088,189.792313 80.632233,190.067245 72.685699,190.067245 
	C79.097145,194.734802 84.152496,198.770462 89.570999,202.238785 
	C93.383270,204.678955 94.528839,207.006607 92.721016,211.503372 
	C90.322441,217.469513 88.882103,223.820908 86.780899,230.104935 
	C86.835274,230.048019 86.889656,229.991104 87.640839,230.129761 
M220.186172,230.419907 
	C220.351028,230.296356 220.515900,230.172791 220.680771,230.049225 
	C220.434036,230.066391 220.187286,230.083557 220.504990,229.415955 
	C218.448410,222.929031 216.515930,216.398926 214.279510,209.974609 
	C213.262466,207.053055 213.591980,205.265762 216.358490,203.420181 
	C222.230881,199.502609 227.811783,195.148132 234.749863,190.066223 
	C226.478409,190.066223 219.717957,189.733185 213.010803,190.187286 
	C208.778732,190.473816 207.212433,188.822601 206.167465,185.071350 
	C204.350189,178.547623 202.058273,172.156113 199.633621,164.687286 
	C197.186951,172.165619 194.757828,178.490295 193.111740,185.012573 
	C192.034058,189.282715 189.915695,190.357880 185.819473,190.154404 
	C179.212387,189.826187 172.577103,190.066223 164.500076,190.066223 
	C172.662155,196.026154 179.459671,200.989685 186.207550,205.916977 
	C183.478119,214.258484 180.935181,222.029984 177.868820,231.401169 
	C185.936752,225.590103 192.819733,220.632507 199.530594,215.798889 
	C206.668488,220.739761 213.341629,225.358932 220.186172,230.419907 
M220.012360,155.664322 
	C220.236069,155.664886 220.459793,155.665451 220.683502,155.666031 
	C220.555374,155.342987 220.427246,155.019943 220.270340,153.926270 
	C217.892807,146.371521 215.515274,138.816757 213.145767,131.287552 
	C220.149643,126.179749 226.819061,121.315865 233.488480,116.451973 
	C226.312485,115.506554 219.389038,115.318810 212.483246,115.586533 
	C209.080383,115.718452 207.426529,114.712265 206.468536,111.335426 
	C204.545486,104.556816 202.146194,97.913300 199.590179,90.139618 
	C197.068909,97.943359 194.787018,104.532875 192.845551,111.221214 
	C191.916931,114.420189 190.483719,115.768661 186.932312,115.601593 
	C180.030396,115.276917 173.102386,115.506538 166.185196,115.506538 
	C171.845505,120.822945 177.830582,124.987770 183.537155,129.504471 
	C184.648544,130.384094 185.454865,132.849457 185.073959,134.212189 
	C183.140640,141.128586 180.769852,147.922684 178.552338,154.759613 
	C178.767670,155.059113 178.983002,155.358612 179.198334,155.658096 
	C185.995926,150.868332 192.793518,146.078552 199.569946,141.303696 
	C206.427551,146.006897 213.121460,150.597839 220.012360,155.664322 
M136.063736,120.547607 
	C137.922882,119.162361 139.782028,117.777122 141.641174,116.391884 
	C134.199860,115.502052 127.240875,115.350540 120.293571,115.569489 
	C117.083954,115.670631 115.622955,114.625626 114.722527,111.467491 
	C112.787842,104.681892 110.362045,98.036308 107.759590,90.195412 
	C105.203262,98.068336 102.886452,104.611313 100.996735,111.275398 
	C100.062889,114.568588 98.530861,115.737869 95.060249,115.589935 
	C88.154999,115.295578 81.228363,115.502808 74.310570,115.502808 
	C78.868591,119.999954 83.457741,123.848244 88.526970,126.898727 
	C93.277580,129.757492 94.772850,132.632904 92.315666,138.063614 
	C89.826744,143.564468 88.499397,149.590927 86.257034,156.669556 
	C94.125999,151.002487 100.840691,146.166702 107.797752,141.156372 
	C114.683296,146.083984 121.534164,150.986801 129.482178,156.674774 
	C126.791817,148.463791 124.664078,141.671280 122.316330,134.955673 
	C121.412392,132.369965 121.750221,130.701660 124.164528,129.129501 
	C128.059616,126.593109 131.730255,123.712021 136.063736,120.547607 
z"/>
<path fill="#F0EFEF" opacity="1.000000" stroke="none" 
	d="
M1.000000,257.468658 
	C86.024574,256.992981 171.049149,256.985931 257.001343,256.979248 
	C342.952637,256.986420 427.976318,256.993225 513.000000,257.000000 
	C513.000000,267.354218 513.000000,277.708466 512.638855,288.217468 
	C511.662231,291.306763 511.034760,294.238861 510.433380,297.176270 
	C508.570312,306.276215 506.717133,315.378204 504.425171,324.308777 
	C502.833008,324.050140 501.675751,323.885071 500.518494,323.885010 
	C338.430237,323.873474 176.341949,323.871155 14.253694,323.916046 
	C12.713383,323.916473 11.173246,324.553070 9.402071,324.603821 
	C7.098812,312.844757 5.044439,301.371185 2.881236,289.918152 
	C2.803825,289.508270 1.651408,289.301453 1.000003,289.000000 
	C1.000000,278.645782 1.000000,268.291534 1.000000,257.468658 
z"/>
<path fill="#D80128" opacity="1.000000" stroke="none" 
	d="
M513.000000,256.531342 
	C427.976318,256.993225 342.952637,256.986420 257.465149,256.907410 
	C257.016510,234.903351 257.031677,212.971481 257.564636,190.582733 
	C338.181580,190.125854 418.280701,190.123688 498.379822,190.137344 
	C500.538483,190.137711 502.697113,190.309128 504.931854,190.785309 
	C507.027130,202.320572 509.022644,213.475784 511.134766,224.608917 
	C511.241302,225.170349 512.355164,225.540695 513.000000,226.000000 
	C513.000000,236.020889 513.000000,246.041794 513.000000,256.531342 
z"/>
<path fill="#000000" opacity="1.000000" stroke="none" 
	d="
M513.000000,225.531342 
	C512.355164,225.540695 511.241302,225.170349 511.134766,224.608917 
	C509.022644,213.475784 507.027130,202.320572 504.986053,190.369965 
	C504.018555,186.865738 502.955139,184.196075 502.146057,181.451462 
	C495.955170,160.450806 486.872253,140.763580 475.014648,122.033524 
	C461.678619,100.858452 445.225006,82.740707 427.332184,65.847450 
	C423.920013,62.625889 420.329987,59.592754 416.574585,56.280746 
	C414.857361,54.856907 413.439758,53.555603 411.909760,52.403595 
	C391.480011,37.021252 369.423370,24.568460 345.282654,16.023790 
	C327.484192,9.723976 309.407837,4.437199 290.443207,2.900947 
	C289.914276,2.858100 289.478973,1.659614 289.000000,1.000000 
	C363.593842,1.000000 438.187714,1.000000 513.000000,1.000000 
	C513.000000,75.687416 513.000000,150.375046 513.000000,225.531342 
z"/>
<path fill="#000000" opacity="1.000000" stroke="none" 
	d="
M37.135010,125.244110 
	C35.083664,128.558456 33.032314,131.872787 30.619720,135.680359 
	C28.481010,140.092804 26.703548,144.011993 24.926083,147.931198 
	C22.284142,154.018936 19.642202,160.106674 16.598619,166.723892 
	C14.095050,174.310913 11.596969,181.279144 9.980837,188.446228 
	C7.327643,200.212387 5.246713,212.107605 2.924476,223.948395 
	C2.924477,223.948395 2.992812,223.985550 2.703634,224.013870 
	C2.323807,224.365860 2.233158,224.689529 2.142509,225.013199 
	C1.950394,225.157806 1.758280,225.302399 1.283083,225.223511 
	C1.000000,150.405807 1.000000,75.811607 1.000000,1.000000 
	C76.354088,1.000000 151.708389,1.000000 227.531342,0.999999 
	C225.590546,1.996805 223.235977,3.678308 220.762497,3.876647 
	C207.145859,4.968513 194.120941,8.487236 181.096466,12.364745 
	C159.741821,18.722221 139.918442,28.320356 120.826355,39.609573 
	C120.406723,39.857708 119.900848,39.960011 118.932259,40.593098 
	C109.827942,47.402447 101.226570,53.749043 92.625198,60.095634 
	C74.010361,75.974037 57.391911,93.649635 43.632885,114.700394 
	C41.524578,118.135422 39.723671,121.046181 37.922760,123.956932 
	C37.922760,123.956932 37.991379,123.986038 37.682716,124.043823 
	C37.294376,124.482445 37.214695,124.863281 37.135010,125.244110 
z"/>
<path fill="#000000" opacity="1.000000" stroke="none" 
	d="
M1.000003,289.468658 
	C1.651408,289.301453 2.803825,289.508270 2.881236,289.918152 
	C5.044439,301.371185 7.098812,312.844757 9.549822,324.990601 
	C16.054550,348.729004 25.152380,370.500061 38.094200,390.956787 
	C46.799603,403.175690 54.734150,415.754517 64.536438,426.653595 
	C74.754951,438.015472 86.774361,447.757660 98.133995,458.520020 
	C99.213127,459.440277 100.217491,459.979980 101.108414,460.666809 
	C119.311996,474.701111 138.952621,486.193054 160.326797,494.760040 
	C180.421478,502.814117 201.116837,508.400970 222.603500,511.092896 
	C223.468399,511.201233 224.204102,512.340881 225.000000,513.000000 
	C150.406296,513.000000 75.812599,513.000000 1.000000,513.000000 
	C1.000000,438.645905 1.000000,364.291626 1.000003,289.468658 
z"/>
<path fill="#000000" opacity="1.000000" stroke="none" 
	d="
M504.860077,324.479431 
	C506.717133,315.378204 508.570312,306.276215 510.433380,297.176270 
	C511.034760,294.238861 511.662231,291.306763 512.638855,288.686127 
	C513.000000,363.593719 513.000000,438.187408 513.000000,513.000000 
	C438.645905,513.000000 364.291626,513.000000 289.341431,512.584595 
	C289.421326,511.791046 290.055481,511.218231 290.779022,511.063721 
	C305.141663,507.996460 319.722931,505.720337 333.833801,501.764130 
	C352.152924,496.627991 369.616333,488.949860 385.837585,478.933777 
	C396.220551,472.522644 405.981506,465.104187 416.325195,457.969330 
	C422.404694,452.715515 428.401031,447.855652 433.899170,442.485687 
	C440.517914,436.021179 447.239624,429.540100 452.965302,422.312469 
	C461.051514,412.104889 468.265747,401.206543 476.090698,390.364563 
	C481.250824,380.755951 486.790558,371.650391 490.939453,361.950043 
	C496.173035,349.713623 500.271759,336.991821 504.860077,324.479431 
z"/>
<path fill="#D80229" opacity="1.000000" stroke="none" 
	d="
M416.021301,458.137299 
	C405.981506,465.104187 396.220551,472.522644 385.837585,478.933777 
	C369.616333,488.949860 352.152924,496.627991 333.833801,501.764130 
	C319.722931,505.720337 305.141663,507.996460 290.779022,511.063721 
	C290.055481,511.218231 289.421326,511.791046 288.872772,512.584595 
	C267.979095,513.000000 246.958206,513.000000 225.468658,513.000000 
	C224.204102,512.340881 223.468399,511.201233 222.603500,511.092896 
	C201.116837,508.400970 180.421478,502.814117 160.326797,494.760040 
	C138.952621,486.193054 119.311996,474.701111 101.108414,460.666809 
	C100.217491,459.979980 99.213127,459.440277 98.367523,458.160553 
	C99.464752,457.405426 100.456039,457.248657 101.447342,457.248566 
	C204.922012,457.237366 308.396667,457.234375 411.871338,457.275085 
	C413.254761,457.275604 414.637970,457.837463 416.021301,458.137299 
z"/>
<path fill="#F0EEEE" opacity="1.000000" stroke="none" 
	d="
M288.531342,1.000000 
	C289.478973,1.659614 289.914276,2.858100 290.443207,2.900947 
	C309.407837,4.437199 327.484192,9.723976 345.282654,16.023790 
	C369.423370,24.568460 391.480011,37.021252 411.909760,52.403595 
	C413.439758,53.555603 414.857361,54.856907 416.124268,56.364956 
	C363.003662,56.678783 310.086060,56.716457 257.168427,56.754135 
	C257.112183,38.481861 257.055969,20.209589 256.999878,1.468657 
	C267.354218,1.000000 277.708466,1.000000 288.531342,1.000000 
z"/>
<path fill="#F0EEEF" opacity="1.000000" stroke="none" 
	d="
M475.361542,122.169968 
	C486.872253,140.763580 495.955170,160.450806 502.146057,181.451462 
	C502.955139,184.196075 504.018555,186.865738 504.909973,189.985443 
	C502.697113,190.309128 500.538483,190.137711 498.379822,190.137344 
	C418.280701,190.123688 338.181580,190.125854 257.625214,190.125458 
	C257.127747,168.186447 257.087524,146.247864 257.564209,123.864807 
	C328.499786,123.418152 398.918488,123.426262 469.337128,123.361633 
	C471.345642,123.359787 473.353424,122.584572 475.361542,122.169968 
z"/>
<path fill="#D80027" opacity="1.000000" stroke="none" 
	d="
M475.014648,122.033524 
	C473.353424,122.584572 471.345642,123.359787 469.337128,123.361633 
	C398.918488,123.426262 328.499786,123.418152 257.624084,123.426941 
	C257.120483,101.527687 257.073853,79.621826 257.097839,57.235046 
	C310.086060,56.716457 363.003662,56.678783 416.371643,56.556900 
	C420.329987,59.592754 423.920013,62.625889 427.332184,65.847450 
	C445.225006,82.740707 461.678619,100.858452 475.014648,122.033524 
z"/>
<path fill="#ECEDEF" opacity="1.000000" stroke="none" 
	d="
M135.779709,120.762070 
	C131.730255,123.712021 128.059616,126.593109 124.164528,129.129501 
	C121.750221,130.701660 121.412392,132.369965 122.316330,134.955673 
	C124.664078,141.671280 126.791817,148.463791 129.482178,156.674774 
	C121.534164,150.986801 114.683296,146.083984 107.797752,141.156372 
	C100.840691,146.166702 94.125999,151.002487 86.257034,156.669556 
	C88.499397,149.590927 89.826744,143.564468 92.315666,138.063614 
	C94.772850,132.632904 93.277580,129.757492 88.526970,126.898727 
	C83.457741,123.848244 78.868591,119.999954 74.310570,115.502808 
	C81.228363,115.502808 88.154999,115.295578 95.060249,115.589935 
	C98.530861,115.737869 100.062889,114.568588 100.996735,111.275398 
	C102.886452,104.611313 105.203262,98.068336 107.759590,90.195412 
	C110.362045,98.036308 112.787842,104.681892 114.722527,111.467491 
	C115.622955,114.625626 117.083954,115.670631 120.293571,115.569489 
	C127.240875,115.350540 134.199860,115.502052 141.641174,116.391884 
	C139.782028,117.777122 137.922882,119.162361 135.779709,120.762070 
z"/>
<path fill="#ECEEEF" opacity="1.000000" stroke="none" 
	d="
M219.815369,155.188766 
	C213.121460,150.597839 206.427551,146.006897 199.569946,141.303696 
	C192.793518,146.078552 185.995926,150.868332 179.198334,155.658096 
	C178.983002,155.358612 178.767670,155.059113 178.552338,154.759613 
	C180.769852,147.922684 183.140640,141.128586 185.073959,134.212189 
	C185.454865,132.849457 184.648544,130.384094 183.537155,129.504471 
	C177.830582,124.987770 171.845505,120.822945 166.185196,115.506538 
	C173.102386,115.506538 180.030396,115.276917 186.932312,115.601593 
	C190.483719,115.768661 191.916931,114.420189 192.845551,111.221214 
	C194.787018,104.532875 197.068909,97.943359 199.590179,90.139618 
	C202.146194,97.913300 204.545486,104.556816 206.468536,111.335426 
	C207.426529,114.712265 209.080383,115.718452 212.483246,115.586533 
	C219.389038,115.318810 226.312485,115.506554 233.488480,116.451973 
	C226.819061,121.315865 220.149643,126.179749 213.145767,131.287552 
	C215.515274,138.816757 217.892807,146.371521 220.163879,154.434647 
	C220.057434,154.943024 219.815369,155.188766 219.815369,155.188766 
z"/>
<path fill="#EBECEF" opacity="1.000000" stroke="none" 
	d="
M220.014771,229.978119 
	C213.341629,225.358932 206.668488,220.739761 199.530594,215.798889 
	C192.819733,220.632507 185.936752,225.590103 177.868820,231.401169 
	C180.935181,222.029984 183.478119,214.258484 186.207550,205.916977 
	C179.459671,200.989685 172.662155,196.026154 164.500076,190.066223 
	C172.577103,190.066223 179.212387,189.826187 185.819473,190.154404 
	C189.915695,190.357880 192.034058,189.282715 193.111740,185.012573 
	C194.757828,178.490295 197.186951,172.165619 199.633621,164.687286 
	C202.058273,172.156113 204.350189,178.547623 206.167465,185.071350 
	C207.212433,188.822601 208.778732,190.473816 213.010803,190.187286 
	C219.717957,189.733185 226.478409,190.066223 234.749863,190.066223 
	C227.811783,195.148132 222.230881,199.502609 216.358490,203.420181 
	C213.591980,205.265762 213.262466,207.053055 214.279510,209.974609 
	C216.515930,216.398926 218.448410,222.929031 220.239655,229.726685 
	C219.974304,230.037399 220.014771,229.978119 220.014771,229.978119 
z"/>
<path fill="#EBEDEF" opacity="1.000000" stroke="none" 
	d="
M87.030006,230.006760 
	C88.882103,223.820908 90.322441,217.469513 92.721016,211.503372 
	C94.528839,207.006607 93.383270,204.678955 89.570999,202.238785 
	C84.152496,198.770462 79.097145,194.734802 72.685699,190.067245 
	C80.632233,190.067245 87.201088,189.792313 93.733055,190.164551 
	C98.040611,190.410019 100.248306,189.382324 101.332466,184.805038 
	C102.854591,178.378647 105.339882,172.180389 107.772545,164.793472 
	C110.319138,172.465103 112.799652,179.128296 114.684654,185.955887 
	C115.634941,189.397858 117.251015,190.277695 120.613815,190.147415 
	C127.517204,189.879959 134.438202,190.067078 142.934967,190.067078 
	C136.229706,194.973007 130.921265,199.145035 125.306068,202.852417 
	C122.161407,204.928665 121.203758,206.801407 122.666473,210.549973 
	C125.130806,216.865417 126.915855,223.445908 129.422028,231.275146 
	C121.667526,225.675690 114.940727,220.818314 107.913208,215.743805 
	C101.132263,220.555801 94.386551,225.342789 87.312355,230.051971 
	C86.983871,229.974182 87.030006,230.006760 87.030006,230.006760 
z"/>
<path fill="#ECEDEF" opacity="1.000000" stroke="none" 
	d="
M179.068008,81.080803 
	C180.758652,75.058281 182.431778,69.030746 184.149612,63.015987 
	C184.736053,60.962700 185.434769,58.941479 186.143646,56.712296 
	C179.273224,51.697727 172.566589,46.802708 164.607773,40.993740 
	C172.905792,40.993740 179.920975,40.755032 186.908173,41.093708 
	C190.440384,41.264912 191.878113,40.023926 192.804626,36.784641 
	C194.722290,30.080217 197.025421,23.486057 199.565552,15.622091 
	C202.159943,23.419535 204.603394,30.120159 206.568192,36.958313 
	C207.459503,40.060368 208.774414,41.197346 212.058548,41.074680 
	C219.119553,40.810955 226.197220,40.993721 234.690903,40.993721 
	C228.178986,45.745289 223.001923,49.847904 217.486328,53.429131 
	C214.012604,55.684601 213.053085,57.841324 214.636993,61.870056 
	C216.980469,67.830734 218.599380,74.076271 219.487885,80.854286 
	C212.937592,76.128807 206.387299,71.403320 199.661011,66.550880 
	C192.886307,71.431641 186.288620,76.184868 179.361740,80.985924 
	C179.032562,81.033752 179.068008,81.080803 179.068008,81.080803 
z"/>
<path fill="#ECEEEF" opacity="1.000000" stroke="none" 
	d="
M3.216397,224.221649 
	C5.246713,212.107605 7.327643,200.212387 9.980837,188.446228 
	C11.596969,181.279144 14.095050,174.310913 16.546556,167.097290 
	C18.990391,173.584564 21.173157,180.201965 23.133045,186.884705 
	C23.863317,189.374756 25.112368,190.199356 27.712147,190.133469 
	C34.948345,189.950058 42.192223,190.069763 49.795292,191.037689 
	C44.778481,194.702240 39.998253,198.767487 34.673916,201.911224 
	C29.970770,204.688232 29.390331,207.615463 31.392086,212.414749 
	C33.728115,218.015488 35.236706,223.961334 36.343639,230.385315 
	C30.638401,226.249237 24.848175,222.223450 19.268425,217.924500 
	C16.931923,216.124313 15.223875,215.838669 12.833910,217.851990 
	C9.924596,220.302795 6.633987,222.300949 3.216397,224.221649 
z"/>
<path fill="#ECEDEF" opacity="1.000000" stroke="none" 
	d="
M92.678864,60.461372 
	C101.226570,53.749043 109.827942,47.402447 118.755318,40.876793 
	C126.497841,40.697735 133.914352,40.697735 141.330872,40.697735 
	C141.458527,41.093731 141.586182,41.489723 141.713852,41.885719 
	C136.030014,45.997978 130.423584,50.223885 124.627274,54.170956 
	C122.022072,55.945004 121.315002,57.652023 122.440315,60.739468 
	C124.857346,67.370888 126.844925,74.158829 129.400635,82.102028 
	C122.552917,77.159248 116.680290,73.129379 111.064621,68.768616 
	C108.664871,66.905121 107.016373,66.878815 104.615265,68.741730 
	C99.050026,73.059555 93.243896,77.066895 86.422676,82.005806 
	C88.798798,74.030464 90.765656,67.428787 92.678864,60.461372 
z"/>
<path fill="#E7EAEE" opacity="1.000000" stroke="none" 
	d="
M25.246805,148.060455 
	C26.703548,144.011993 28.481010,140.092804 30.596027,136.037659 
	C32.997360,142.330978 35.061138,148.760269 37.543510,156.493576 
	C32.874729,153.256363 29.221127,150.723038 25.246805,148.060455 
z"/>
<path fill="#E4E8ED" opacity="1.000000" stroke="none" 
	d="
M38.231712,124.200638 
	C39.723671,121.046181 41.524578,118.135422 43.635338,115.059219 
	C45.800701,115.216431 47.656208,115.539085 50.542297,116.040955 
	C46.077454,119.167183 42.309059,121.805771 38.231712,124.200638 
z"/>
<path fill="#ECEEEF" opacity="1.000000" stroke="none" 
	d="
M220.178284,154.819962 
	C220.427246,155.019943 220.555374,155.342987 220.683502,155.666016 
	C220.459793,155.665451 220.236069,155.664886 219.913864,155.426544 
	C219.815369,155.188766 220.057434,154.943024 220.178284,154.819962 
z"/>
<path fill="#E4E8ED" opacity="1.000000" stroke="none" 
	d="
M37.483864,125.136047 
	C37.214695,124.863281 37.294376,124.482445 37.668575,124.009346 
	C38.039364,124.176392 38.157215,124.433479 38.171326,124.696136 
	C38.176926,124.800385 37.952446,124.917007 37.483864,125.136047 
z"/>
<path fill="#ECEEEF" opacity="1.000000" stroke="none" 
	d="
M2.474420,224.963425 
	C2.233158,224.689529 2.323807,224.365860 2.688722,223.977951 
	C3.026159,224.151352 3.127555,224.388092 3.133287,224.627106 
	C3.135514,224.719955 2.921722,224.817993 2.474420,224.963425 
z"/>
<path fill="#EBEDEF" opacity="1.000000" stroke="none" 
	d="
M86.963951,229.954178 
	C86.889656,229.991104 86.835274,230.048019 86.905457,230.055847 
	C87.030006,230.006760 86.983871,229.974182 86.963951,229.954178 
z"/>
<path fill="#EBECEF" opacity="1.000000" stroke="none" 
	d="
M219.957428,230.069061 
	C220.187286,230.083557 220.434036,230.066391 220.680771,230.049225 
	C220.515900,230.172791 220.351028,230.296356 220.100464,230.199005 
	C220.014771,229.978119 219.974304,230.037399 219.957428,230.069061 
z"/>
<path fill="#ECEDEF" opacity="1.000000" stroke="none" 
	d="
M179.016266,81.009224 
	C178.906143,80.965065 178.812332,80.945435 178.893265,81.003304 
	C179.068008,81.080803 179.032562,81.033752 179.016266,81.009224 
z"/>
<path fill="#D80228" opacity="1.000000" stroke="none" 
	d="
M504.425171,324.308777 
	C500.271759,336.991821 496.173035,349.713623 490.939453,361.950043 
	C486.790558,371.650391 481.250824,380.755951 475.634888,390.354584 
	C329.342163,390.581879 183.743149,390.580200 38.144142,390.578522 
	C25.152380,370.500061 16.054550,348.729004 9.780779,325.279419 
	C11.173246,324.553070 12.713383,323.916473 14.253694,323.916046 
	C176.341949,323.871155 338.430237,323.873474 500.518494,323.885010 
	C501.675751,323.885071 502.833008,324.050140 504.425171,324.308777 
z"/>
<path fill="#F0F0F0" opacity="1.000000" stroke="none" 
	d="
M38.094200,390.956787 
	C183.743149,390.580200 329.342163,390.581879 475.396973,390.593506 
	C468.265747,401.206543 461.051514,412.104889 452.965302,422.312469 
	C447.239624,429.540100 440.517914,436.021179 433.899170,442.485687 
	C428.401031,447.855652 422.404694,452.715515 416.325195,457.969330 
	C414.637970,457.837463 413.254761,457.275604 411.871338,457.275085 
	C308.396667,457.234375 204.922012,457.237366 101.447342,457.248566 
	C100.456039,457.248657 99.464752,457.405426 98.239929,457.848511 
	C86.774361,447.757660 74.754951,438.015472 64.536438,426.653595 
	C54.734150,415.754517 46.799603,403.175690 38.094200,390.956787 
z"/>
</svg>