<svg version="1.1" id="Layer_1" xmlns="http://www.w3.org/2000/svg" xmlns:xlink="http://www.w3.org/1999/xlink" x="0px" y="0px"
	 width="100%" viewBox="0 0 512 512" enable-background="new 0 0 512 512" xml:space="preserve">
<path fill="#F3F4F5" opacity="1.000000" stroke="none" 
	d="
M227.000000,0.999997 
	C241.020889,1.000000 255.041794,1.000000 269.593506,1.355178 
	C270.910767,2.230752 271.628998,2.971216 272.493652,3.238971 
	C289.055054,8.367653 301.337341,19.046442 311.472412,32.730556 
	C323.983948,49.623234 331.999390,68.682671 338.971222,88.292419 
	C339.790131,90.595726 340.966583,92.771912 342.075287,95.457977 
	C342.324524,99.556999 342.475739,103.205086 342.454468,107.305023 
	C342.247833,108.588867 342.183899,109.420837 342.183838,110.252815 
	C342.178802,207.741730 342.176544,305.230652 342.196625,402.719574 
	C342.196930,404.197021 342.477295,405.674377 342.523743,407.590332 
	C342.272797,411.683838 342.125031,415.338837 341.700745,419.215271 
	C340.719543,421.113281 340.046173,422.803802 339.305389,424.464264 
	C332.418793,439.900421 326.483093,455.859131 318.382690,470.630493 
	C308.201660,489.196014 293.895142,504.068878 272.757446,510.678955 
	C271.699799,511.009705 270.912964,512.206482 270.000000,513.000000 
	C255.979111,513.000000 241.958206,513.000000 227.378876,512.615845 
	C226.323380,511.853180 225.868546,511.225739 225.322952,511.133179 
	C216.898346,509.703674 208.343887,508.833466 200.059860,506.836609 
	C190.861298,504.619263 181.906952,501.388702 172.761932,498.162170 
	C172.667023,337.947723 172.656113,178.170380 172.654053,18.393024 
	C172.654053,17.398752 172.777054,16.404478 173.056152,15.079197 
	C187.947479,11.144911 202.633026,7.572663 217.297119,3.914434 
	C220.570068,3.097935 223.767700,1.979447 227.000000,0.999997 
z"/>
<path fill="#3757A6" opacity="1.000000" stroke="none" 
	d="
M172.842621,15.410206 
	C172.777054,16.404478 172.654053,17.398752 172.654053,18.393024 
	C172.656113,178.170380 172.667023,337.947723 172.393402,498.265808 
	C160.171143,493.767487 147.774567,489.583649 136.403030,483.487701 
	C119.581444,474.470123 103.800339,463.722504 89.359459,451.020691 
	C73.554192,437.118835 59.401016,421.808105 47.225449,404.684204 
	C35.292965,387.902191 25.673714,369.850006 18.226925,350.633057 
	C10.671336,331.135345 5.133524,311.151123 2.956466,290.291962 
	C2.560826,286.501190 1.664948,282.762665 1.000000,279.000000 
	C1.000000,264.645782 1.000000,250.291550 1.380554,235.278992 
	C2.185977,229.537582 2.203490,224.380646 3.109277,219.384750 
	C6.296614,201.804871 10.214663,184.435181 16.601730,167.631256 
	C22.869892,151.140137 30.126379,135.161835 39.970417,120.565071 
	C47.438923,109.490738 55.776405,98.979813 64.075180,88.493561 
	C75.414330,74.165527 89.160896,62.233364 103.613159,51.234665 
	C119.063370,39.476494 136.111374,30.212845 153.745193,22.148785 
	C159.859512,19.352667 166.462723,17.625574 172.842621,15.410206 
z"/>
<path fill="#E61E25" opacity="1.000000" stroke="none" 
	d="
M341.977295,418.993835 
	C342.125031,415.338837 342.272797,411.683838 342.870636,407.561005 
	C343.858673,406.541595 344.722382,406.072174 344.885284,405.426056 
	C346.989197,397.079529 349.522583,388.794830 350.914093,380.324738 
	C353.940613,361.901886 356.877289,343.436371 358.902374,324.884796 
	C360.877502,306.790680 362.695190,288.569702 362.730957,270.400787 
	C362.777618,246.693405 361.360382,222.959930 359.873779,199.281601 
	C359.005341,185.448944 357.110138,171.651535 355.058289,157.930756 
	C353.078125,144.689575 350.534912,131.517807 347.739807,118.422104 
	C346.878326,114.385910 344.377258,110.699654 342.626953,106.853165 
	C342.475739,103.205086 342.324524,99.556999 342.186279,94.999512 
	C342.224152,67.780930 342.249054,41.471752 342.634338,15.140806 
	C344.475250,15.744193 345.965210,16.348017 347.434753,16.997938 
	C357.641266,21.511831 368.211273,25.363697 377.965149,30.705299 
	C394.660492,39.848301 410.402039,50.476921 424.798309,63.126286 
	C440.331787,76.774818 454.149231,91.865669 466.205872,108.610558 
	C478.386017,125.526924 488.100677,143.768143 495.670929,163.195923 
	C503.295258,182.762573 508.860291,202.812759 511.042511,223.753876 
	C511.435974,227.529587 512.334595,231.252640 513.000000,235.000000 
	C513.000000,249.354233 513.000000,263.708466 512.612183,278.710510 
	C511.492371,285.356384 510.808075,291.360718 510.019989,297.351349 
	C506.521637,323.945007 497.764404,348.899475 485.975250,372.824707 
	C475.856110,393.360809 462.791931,412.023224 447.420349,428.914276 
	C434.782288,442.801544 420.867065,455.378113 405.389496,466.199677 
	C385.782104,479.908722 364.781464,490.793671 342.270081,498.383118 
	C342.256378,491.595123 342.270050,485.265045 342.244354,478.935089 
	C342.163269,458.954651 342.067413,438.974243 341.977295,418.993835 
z"/>
<path fill="#FFFFFF" opacity="1.000000" stroke="none" 
	d="
M173.056152,15.079197 
	C166.462723,17.625574 159.859512,19.352667 153.745193,22.148785 
	C136.111374,30.212845 119.063370,39.476494 103.613159,51.234665 
	C89.160896,62.233364 75.414330,74.165527 64.075180,88.493561 
	C55.776405,98.979813 47.438923,109.490738 39.970417,120.565071 
	C30.126379,135.161835 22.869892,151.140137 16.601730,167.631256 
	C10.214663,184.435181 6.296614,201.804871 3.109277,219.384750 
	C2.203490,224.380646 2.185977,229.537582 1.380554,234.810333 
	C1.000000,157.074219 1.000000,79.148445 1.000000,1.000000 
	C76.020744,1.000000 151.041718,1.000000 226.531342,0.999997 
	C223.767700,1.979447 220.570068,3.097935 217.297119,3.914434 
	C202.633026,7.572663 187.947479,11.144911 173.056152,15.079197 
z"/>
<path fill="#FFFFFF" opacity="1.000000" stroke="none" 
	d="
M513.000000,234.531342 
	C512.334595,231.252640 511.435974,227.529587 511.042511,223.753876 
	C508.860291,202.812759 503.295258,182.762573 495.670929,163.195923 
	C488.100677,143.768143 478.386017,125.526924 466.205872,108.610558 
	C454.149231,91.865669 440.331787,76.774818 424.798309,63.126286 
	C410.402039,50.476921 394.660492,39.848301 377.965149,30.705299 
	C368.211273,25.363697 357.641266,21.511831 347.434753,16.997938 
	C345.965210,16.348017 344.475250,15.744193 342.271912,14.977871 
	C339.329468,14.172485 337.136597,13.395061 334.885773,12.862782 
	C322.176270,9.857276 309.442688,6.953300 296.741241,3.914706 
	C293.450073,3.127359 290.244751,1.981296 287.000000,1.000001 
	C362.261627,1.000000 437.523285,1.000000 513.000000,1.000000 
	C513.000000,78.687431 513.000000,156.375061 513.000000,234.531342 
z"/>
<path fill="#FFFFFF" opacity="1.000000" stroke="none" 
	d="
M342.279449,498.841125 
	C364.781464,490.793671 385.782104,479.908722 405.389496,466.199677 
	C420.867065,455.378113 434.782288,442.801544 447.420349,428.914276 
	C462.791931,412.023224 475.856110,393.360809 485.975250,372.824707 
	C497.764404,348.899475 506.521637,323.945007 510.019989,297.351349 
	C510.808075,291.360718 511.492371,285.356384 512.612183,279.179199 
	C513.000000,356.925751 513.000000,434.851532 513.000000,513.000000 
	C437.979248,513.000000 362.958282,513.000000 287.547241,512.611389 
	C287.990540,511.819427 288.797272,511.136292 289.661255,511.054016 
	C307.749359,509.331299 325.152435,504.686859 342.279449,498.841125 
z"/>
<path fill="#FFFFFF" opacity="1.000000" stroke="none" 
	d="
M1.000000,279.468658 
	C1.664948,282.762665 2.560826,286.501190 2.956466,290.291962 
	C5.133524,311.151123 10.671336,331.135345 18.226925,350.633057 
	C25.673714,369.850006 35.292965,387.902191 47.225449,404.684204 
	C59.401016,421.808105 73.554192,437.118835 89.359459,451.020691 
	C103.800339,463.722504 119.581444,474.470123 136.403030,483.487701 
	C147.774567,489.583649 160.171143,493.767487 172.477753,498.702942 
	C181.906952,501.388702 190.861298,504.619263 200.059860,506.836609 
	C208.343887,508.833466 216.898346,509.703674 225.322952,511.133179 
	C225.868546,511.225739 226.323380,511.853180 226.910217,512.615845 
	C151.738358,513.000000 76.476723,513.000000 1.000000,513.000000 
	C1.000000,435.312561 1.000000,357.624939 1.000000,279.468658 
z"/>
<path fill="#E4E4E4" opacity="1.000000" stroke="none" 
	d="
M286.532410,1.000001 
	C290.244751,1.981296 293.450073,3.127359 296.741241,3.914706 
	C309.442688,6.953300 322.176270,9.857276 334.885773,12.862782 
	C337.136597,13.395061 339.329468,14.172485 341.911499,14.999643 
	C342.249054,41.471752 342.224152,67.780930 342.088257,94.548569 
	C340.966583,92.771912 339.790131,90.595726 338.971222,88.292419 
	C331.999390,68.682671 323.983948,49.623234 311.472412,32.730556 
	C301.337341,19.046442 289.055054,8.367653 272.493652,3.238971 
	C271.628998,2.971216 270.910767,2.230752 270.062195,1.355178 
	C275.354919,1.000000 280.709869,1.000000 286.532410,1.000001 
z"/>
<path fill="#E4E4E4" opacity="1.000000" stroke="none" 
	d="
M342.270081,498.383118 
	C325.152435,504.686859 307.749359,509.331299 289.661255,511.054016 
	C288.797272,511.136292 287.990540,511.819427 287.078583,512.611389 
	C281.645081,513.000000 276.290131,513.000000 270.467590,513.000000 
	C270.912964,512.206482 271.699799,511.009705 272.757446,510.678955 
	C293.895142,504.068878 308.201660,489.196014 318.382690,470.630493 
	C326.483093,455.859131 332.418793,439.900421 339.305389,424.464264 
	C340.046173,422.803802 340.719543,421.113281 341.700745,419.215271 
	C342.067413,438.974243 342.163269,458.954651 342.244354,478.935089 
	C342.270050,485.265045 342.256378,491.595123 342.270081,498.383118 
z"/>
<path fill="#EF4F4E" opacity="1.000000" stroke="none" 
	d="
M342.454468,107.305023 
	C344.377258,110.699654 346.878326,114.385910 347.739807,118.422104 
	C350.534912,131.517807 353.078125,144.689575 355.058289,157.930756 
	C357.110138,171.651535 359.005341,185.448944 359.873779,199.281601 
	C361.360382,222.959930 362.777618,246.693405 362.730957,270.400787 
	C362.695190,288.569702 360.877502,306.790680 358.902374,324.884796 
	C356.877289,343.436371 353.940613,361.901886 350.914093,380.324738 
	C349.522583,388.794830 346.989197,397.079529 344.885284,405.426056 
	C344.722382,406.072174 343.858673,406.541595 342.973816,407.122498 
	C342.477295,405.674377 342.196930,404.197021 342.196625,402.719574 
	C342.176544,305.230652 342.178802,207.741730 342.183838,110.252815 
	C342.183899,109.420837 342.247833,108.588867 342.454468,107.305023 
z"/>
</svg>