<svg version="1.1" id="Layer_1" xmlns="http://www.w3.org/2000/svg" xmlns:xlink="http://www.w3.org/1999/xlink" x="0px" y="0px"
	 width="100%" viewBox="0 0 512 512" enable-background="new 0 0 512 512" xml:space="preserve">
<path fill="#3E9636" opacity="1.000000" stroke="none" 
	d="
M225.000000,1.000001 
	C246.020889,1.000000 267.041779,1.000000 288.475311,1.415694 
	C292.010712,2.532765 295.103607,3.436273 298.261017,3.903521 
	C323.360504,7.617844 347.200287,15.376781 369.924225,26.512897 
	C389.665344,36.187241 408.322235,47.710777 424.271881,62.944855 
	C436.577484,74.698410 448.947937,86.588669 459.680634,99.731964 
	C472.786163,115.781059 483.262573,133.715057 491.536316,152.896210 
	C500.313965,173.245605 506.954193,194.123810 510.106232,216.098236 
	C510.542725,219.141251 512.009949,222.036392 513.000000,225.000000 
	C513.000000,246.020889 513.000000,267.041779 512.583862,288.476166 
	C511.784363,289.731079 511.190704,290.539368 511.052155,291.419312 
	C510.206909,296.787323 509.755157,302.232513 508.640472,307.540314 
	C502.570129,336.445068 492.319611,363.706024 477.046631,389.108887 
	C461.795044,414.476105 442.629456,436.478210 419.971405,455.261261 
	C399.822296,471.964447 377.523621,485.440277 353.007446,495.011780 
	C333.149841,502.764465 312.837311,508.688690 291.579590,511.084381 
	C290.659454,511.188049 289.857178,512.337646 289.000000,513.000000 
	C267.979095,513.000000 246.958206,513.000000 225.524506,512.584351 
	C224.436966,511.791199 223.804123,511.223450 223.081314,511.064331 
	C208.340820,507.819702 193.393204,505.321655 178.889832,501.242126 
	C159.625748,495.823547 141.646240,487.130981 124.464836,476.814819 
	C99.236710,461.667175 77.394417,442.502869 58.722160,419.937073 
	C42.030518,399.764923 28.553921,377.476227 18.968142,352.960602 
	C11.209930,333.118927 5.348278,312.810150 2.915947,291.580017 
	C2.810421,290.658936 1.662402,289.857269 1.000001,289.000000 
	C1.000000,267.645782 1.000000,246.291550 1.411712,224.529633 
	C2.889356,218.726959 3.934712,213.327805 5.024654,207.937698 
	C10.786082,179.445511 20.543846,152.400284 35.373501,127.381744 
	C51.456165,100.249329 71.840599,76.756897 96.478661,56.931286 
	C118.398849,39.292683 142.441895,25.517889 168.883926,15.975102 
	C186.404175,9.652140 204.307434,4.806587 222.917740,2.898552 
	C223.668823,2.821546 224.308441,1.657550 225.000000,1.000001 
M273.507904,138.178406 
	C281.013824,150.154999 288.613159,162.074875 295.948181,174.155228 
	C297.445435,176.621109 298.651184,179.652985 298.799683,182.486389 
	C299.862183,202.761032 300.657806,223.050262 301.439148,243.338669 
	C301.634460,248.409409 301.468353,253.494064 301.468353,259.170197 
	C307.320587,255.739777 309.939880,250.581909 310.041901,244.665466 
	C310.274231,231.188568 309.852081,217.700424 309.699921,204.216812 
	C309.684967,202.893738 309.697906,201.570343 309.697906,200.247086 
	C310.134369,200.173752 310.570831,200.100418 311.007294,200.027069 
	C317.718109,213.625610 324.428894,227.224152 331.618866,241.793671 
	C333.697540,233.342041 333.969299,225.956772 330.676086,219.006958 
	C325.410889,207.895477 320.517273,196.460876 313.875458,186.191971 
	C307.777618,176.764099 307.181122,166.617020 306.128418,156.283585 
	C306.021362,155.232605 307.209961,154.049637 307.797272,152.927917 
	C308.500916,152.831512 309.204529,152.735123 309.908173,152.638718 
	C305.574860,143.878372 301.241547,135.118027 296.908234,126.357689 
	C296.094635,126.467026 295.281006,126.576363 294.467377,126.685699 
	C293.388245,130.455658 292.309082,134.225616 291.269684,137.856720 
	C287.688049,134.478165 283.997437,130.710495 279.964630,127.353912 
	C278.622559,126.236870 276.254883,125.521080 274.643005,125.886696 
	C273.748840,126.089523 273.156219,128.868591 272.951508,130.550217 
	C272.692535,132.677658 272.966583,134.869965 272.317047,136.893280 
	C270.948212,134.614532 269.900787,132.028503 268.108856,130.154282 
	C266.674866,128.654388 264.181732,127.013718 262.441467,127.280479 
	C260.657532,127.553932 257.989594,129.975372 257.863220,131.622009 
	C257.522491,136.062286 257.846771,140.697083 258.809418,145.055405 
	C259.869781,149.855972 261.989471,154.416840 263.520935,159.123383 
	C263.869598,160.194901 264.188141,161.767609 263.669708,162.534225 
	C262.319519,164.530823 260.778351,166.917343 258.747955,167.722412 
	C257.685364,168.143738 254.197128,165.788834 253.927002,164.302063 
	C252.597000,156.982315 252.159317,149.506149 251.052551,142.138382 
	C250.119690,135.928345 248.701248,129.791260 247.497742,123.621872 
	C241.246872,128.860138 239.998871,134.443924 241.848877,141.160355 
	C244.051300,149.156204 246.406250,157.386459 241.218628,165.236465 
	C237.674240,170.599915 232.079498,170.321793 229.134964,164.550613 
	C228.279526,162.874023 228.139328,160.735092 228.038269,158.789047 
	C227.719131,152.642166 227.785675,146.467056 227.231476,140.345581 
	C227.066589,138.524384 225.348083,136.843857 224.341446,135.098846 
	C222.647507,136.248703 220.158752,137.018677 219.396393,138.613770 
	C215.984085,145.753357 213.044388,153.119919 209.977844,160.422943 
	C209.095734,162.523651 208.359909,164.685806 207.137833,167.933960 
	C200.160233,158.439590 203.190674,147.569687 197.589691,139.071930 
	C196.389694,145.234726 195.258087,151.490463 196.067734,157.483963 
	C196.869492,163.419220 198.863037,169.507339 201.729019,174.768402 
	C205.117065,180.987839 210.970520,180.265823 213.589294,173.754608 
	C215.128433,169.927795 215.856079,165.779648 217.046906,161.805466 
	C217.606445,159.938065 218.397629,158.140060 219.083832,156.310608 
	C219.546463,156.413895 220.009079,156.517197 220.471710,156.620499 
	C220.554932,158.212936 220.523193,159.821396 220.742401,161.394882 
	C221.470703,166.622513 221.405060,172.182999 223.278244,176.977310 
	C226.162659,184.359894 234.410339,185.398956 240.053299,179.819580 
	C241.354797,178.532761 242.523727,177.112488 243.765671,175.764709 
	C248.013229,171.155258 249.401428,171.233032 252.412491,176.676712 
	C254.238235,179.977402 256.822052,181.481232 260.531403,181.319626 
	C265.276245,181.112930 268.021179,178.446274 269.962189,174.328430 
	C271.010864,172.103699 271.466675,168.561356 275.062958,169.539856 
	C275.419830,171.766571 275.646484,173.594467 276.097870,175.365067 
	C276.143616,175.544403 277.625641,175.592957 278.302887,175.336792 
	C282.023468,173.929352 285.796936,165.212814 284.374207,160.425003 
	C282.899506,161.342133 281.604187,162.232452 280.232910,162.984146 
	C276.533173,165.012177 273.048553,164.318100 271.966064,160.816528 
	C270.216522,155.157394 269.043152,149.320145 267.464264,142.898544 
	C271.937317,143.355865 273.633148,141.551147 273.507904,138.178406 
M114.915558,157.914795 
	C114.668663,157.933472 114.421776,157.952148 114.023849,157.068268 
	C113.030998,149.173203 112.242531,141.242142 110.864891,133.414810 
	C110.603790,131.931259 108.005486,130.859085 106.485580,129.597092 
	C105.666931,131.254135 104.121445,132.928604 104.160706,134.565079 
	C104.299690,140.359924 104.847717,146.156540 105.491379,151.924530 
	C106.191711,158.200363 107.301598,164.431595 107.949753,170.711487 
	C108.142845,172.582321 107.382797,174.551529 107.059464,176.475677 
	C106.260803,176.513855 105.462143,176.552032 104.663475,176.590210 
	C104.079964,173.774307 103.128197,170.976410 102.989388,168.138733 
	C102.697586,162.173538 103.079491,156.169250 102.640587,150.221161 
	C102.510391,148.456726 100.749893,145.658829 99.399948,145.443436 
	C97.868828,145.199127 95.731071,147.087387 94.288651,148.491776 
	C93.161148,149.589569 92.370728,151.285675 91.988754,152.852051 
	C90.574249,158.652542 89.449722,164.523178 88.087433,170.337280 
	C87.643738,172.230896 86.806374,174.032272 86.149063,175.875839 
	C85.460953,175.865723 84.772835,175.855591 84.084717,175.845474 
	C82.079613,167.167358 80.074501,158.489243 78.069397,149.811111 
	C77.627869,149.928696 77.186340,150.046280 76.744812,150.163864 
	C76.744812,159.031326 76.552101,167.905502 76.860542,176.762222 
	C76.954857,179.470367 77.847000,182.562881 79.434372,184.686676 
	C80.911697,186.663239 83.846443,188.705475 86.053612,188.615265 
	C87.811424,188.543427 90.445251,185.528275 90.919952,183.420959 
	C91.966919,178.773239 91.722321,173.851044 92.345039,169.085327 
	C92.740761,166.056839 93.747696,163.108200 94.480553,160.123764 
	C95.045036,160.227539 95.609520,160.331314 96.174004,160.435089 
	C96.297859,162.216705 96.513039,163.997528 96.528801,165.780106 
	C96.580322,171.608826 96.425835,177.442276 96.603546,183.266174 
	C96.781303,189.091522 99.504051,192.121368 105.323074,192.790314 
	C109.037125,193.217285 109.929123,195.325012 110.034615,198.540207 
	C110.340408,207.860397 110.740181,217.177628 111.133987,226.494705 
	C111.207603,228.236572 111.424484,229.972397 111.575249,231.710999 
	C112.084610,231.904160 112.593964,232.097336 113.103325,232.290497 
	C114.469704,230.261154 116.601990,228.386719 117.049995,226.171631 
	C118.128288,220.840271 118.802330,215.358398 118.930046,209.920563 
	C119.097885,202.774399 118.468925,195.612595 118.446754,188.456680 
	C118.441216,186.669617 119.447838,184.879425 119.989250,183.090668 
	C121.740211,183.819977 123.894836,184.131714 125.164459,185.358978 
	C128.609848,188.689362 132.133240,188.596222 136.128769,186.731720 
	C142.928482,183.558640 145.746872,179.096985 144.718857,171.591461 
	C143.888885,165.531937 142.418915,159.560043 141.181091,153.286987 
	C142.350754,153.028290 143.601944,152.751556 145.055252,152.430115 
	C147.062866,166.759766 149.141571,180.745087 150.847519,194.775726 
	C151.079056,196.680161 149.443420,198.811630 148.672333,200.837967 
	C147.175140,199.711105 145.383026,198.825485 144.230576,197.416641 
	C138.491776,190.401108 130.384171,190.792984 126.480141,199.111557 
	C124.531258,203.264175 124.626480,208.411926 123.987350,213.135300 
	C122.940239,220.873871 132.263199,223.623199 137.353821,219.890045 
	C138.729156,218.881454 140.111908,217.882980 141.491241,216.879868 
	C141.945938,219.795029 141.727554,222.154419 140.758163,224.148773 
	C136.743393,232.408493 130.050690,237.618378 121.266197,240.005737 
	C113.789467,242.037689 108.927773,238.529678 108.121681,230.764664 
	C107.709404,226.793243 107.571091,222.790833 107.071983,218.832306 
	C106.894394,217.423813 106.016716,216.103607 105.101532,213.872589 
	C100.676636,220.746674 101.044235,227.486282 99.892677,233.918274 
	C99.668373,233.928558 99.445160,233.950073 98.928596,233.368408 
	C95.939362,228.773102 94.716179,232.792252 94.527573,234.711945 
	C93.832878,241.782959 92.660637,249.048004 93.586006,255.984192 
	C95.223801,268.260406 104.738373,274.882416 117.175858,273.740326 
	C119.808716,273.498596 122.448868,272.957733 124.998001,272.242371 
	C145.416656,266.512115 157.632187,251.517883 158.849945,230.476929 
	C159.181000,224.756821 158.900177,219.001297 158.900177,212.387848 
	C164.111755,216.309402 168.553299,215.508072 172.231857,211.957870 
	C174.665649,209.608994 176.449234,209.819916 179.209259,211.178635 
	C183.692001,213.385437 188.951477,211.205795 189.963242,206.490997 
	C191.192505,200.762787 191.541122,194.845581 192.271133,189.006912 
	C184.768433,188.432831 186.494461,195.101959 184.088303,198.204193 
	C183.252960,197.796326 182.707596,197.689117 182.410797,197.358673 
	C180.776596,195.539093 179.203125,193.664993 177.608826,191.809586 
	C175.974991,193.751404 174.325592,195.680466 172.716263,197.642380 
	C172.195892,198.276749 171.900894,199.138611 171.296051,199.653549 
	C168.898285,201.694855 165.945633,200.928986 165.813324,198.002701 
	C165.596741,193.212234 164.052017,190.968231 158.708817,193.605026 
	C157.102188,180.225677 155.560806,167.389755 154.015030,154.517242 
	C159.838135,154.491425 160.354111,154.085785 158.678421,149.010010 
	C156.861542,143.506577 154.662369,138.110092 152.308319,132.809799 
	C150.659210,129.096725 147.649719,128.548431 145.129761,131.699112 
	C143.757843,133.414398 143.279678,136.174026 143.179657,138.496277 
	C143.045258,141.616821 143.665710,144.769867 143.497101,148.041397 
	C143.497101,148.041397 143.030685,147.914001 142.933487,147.224854 
	C140.511017,142.822479 138.256531,138.193573 131.820663,138.230881 
	C133.515717,134.793381 134.091095,131.456039 131.120163,127.443077 
	C129.938797,129.681778 129.215347,131.052719 128.448730,132.505447 
	C127.716698,131.207367 127.030235,129.990112 126.111954,128.361771 
	C125.107681,129.855927 124.391495,130.921463 123.567696,132.147095 
	C122.511292,130.697403 121.723518,129.616348 120.935745,128.535294 
	C120.432213,128.603882 119.928673,128.672470 119.425140,128.741074 
	C119.425140,131.436783 118.735725,134.406418 119.660774,136.734573 
	C120.307419,138.362045 123.038177,139.547791 125.067345,140.125336 
	C126.906670,140.648834 129.056213,140.082352 131.072739,140.830933 
	C128.223312,148.484451 131.201340,155.144440 134.759933,161.630798 
	C136.882126,165.498993 138.177109,169.383194 137.001678,173.764923 
	C131.112457,173.840317 125.484535,168.229645 126.051315,163.007141 
	C126.792015,156.182205 125.681633,149.714828 122.324135,143.752060 
	C121.508614,142.303711 119.804115,141.355896 118.508377,140.177933 
	C117.623260,141.630981 116.109238,143.027222 115.971855,144.547836 
	C115.572021,148.973297 115.723198,153.448532 114.915558,157.914795 
M380.408813,231.891785 
	C376.930695,229.649719 375.012573,231.931427 373.700714,234.566620 
	C370.003876,241.992615 366.637878,249.583618 362.919708,256.998383 
	C362.131195,258.570923 360.450684,260.653351 359.090668,260.722565 
	C357.624603,260.797119 355.528076,259.094238 354.645966,257.608887 
	C353.230408,255.225235 352.260193,252.450516 351.693573,249.718323 
	C350.792145,245.371750 350.377533,240.924194 349.618378,235.534943 
	C344.583099,246.834518 345.140808,256.934204 351.192780,266.384705 
	C353.721771,270.333862 357.101868,274.870361 362.625793,273.868744 
	C368.071228,272.881439 368.735931,267.443085 369.989777,263.013641 
	C371.118378,259.026550 371.681091,254.848251 373.122772,250.989456 
	C374.578888,247.091949 376.915741,246.989731 379.898712,249.979568 
	C382.237976,252.324234 384.412659,255.205215 387.271088,256.552277 
	C389.983093,257.830322 393.977356,258.593414 396.544525,257.519501 
	C402.111084,255.190857 405.960815,250.718582 406.131317,244.105316 
	C406.478882,230.623184 406.800873,217.140396 407.126312,203.657715 
	C407.154419,202.493652 407.130096,201.328339 407.130096,200.163605 
	C407.704498,200.155685 408.278900,200.147781 408.853302,200.139877 
	C409.263824,204.714874 409.674347,209.289886 410.084869,213.864883 
	C410.377838,213.907471 410.670837,213.950058 410.963806,213.992661 
	C411.974213,211.000992 412.984650,208.009338 413.995056,205.017685 
	C414.508545,205.038788 415.022034,205.059891 415.535522,205.080994 
	C416.153625,220.301315 416.771759,235.521637 417.415771,251.379410 
	C419.062408,249.821548 420.294800,248.655594 422.306183,246.752670 
	C422.967163,259.763123 423.397522,271.872528 424.246796,283.952515 
	C425.139343,296.648346 419.245422,305.127258 408.590271,311.082794 
	C405.858429,312.609802 403.263763,314.480225 400.912781,316.542480 
	C399.967133,317.371979 399.064117,319.658966 399.530518,320.364746 
	C400.261597,321.470886 402.160645,322.335419 403.583435,322.363403 
	C410.111328,322.491821 415.949341,320.349091 421.228546,316.468750 
	C428.915955,310.818298 431.747284,302.630554 431.909698,293.798279 
	C432.234009,276.161835 431.758484,258.510681 431.615753,240.865585 
	C431.605072,239.545517 431.614319,238.225281 431.614319,236.905121 
	C431.924622,236.870499 432.234894,236.835876 432.545197,236.801270 
	C434.563660,240.437286 436.582123,244.073318 439.160706,248.718307 
	C439.655212,246.447205 439.924408,245.386795 440.114105,244.312332 
	C442.028656,233.467133 437.651642,224.410965 431.741516,215.923920 
	C427.590057,209.962372 427.264069,203.311417 426.979614,196.168335 
	C432.042908,196.320984 431.635132,193.763840 429.947815,190.757263 
	C427.913239,187.131927 424.975159,183.802795 423.834534,179.931122 
	C421.562439,172.218857 420.241974,164.225464 418.568542,156.339691 
	C418.475464,155.901123 418.602448,155.075394 418.869263,154.951447 
	C423.707703,152.703903 421.048767,148.918854 420.361420,146.002197 
	C419.224823,141.179077 417.499908,136.455200 415.580322,131.874985 
	C414.789673,129.988434 412.852692,128.582321 411.437134,126.957718 
	C409.860260,128.989258 407.920929,130.847137 406.835052,133.113876 
	C406.121704,134.603058 406.385468,136.720612 406.650787,138.490921 
	C407.883698,146.716599 409.293793,154.915543 410.589813,163.132034 
	C411.134125,166.583115 411.587433,170.049652 412.019379,173.516983 
	C412.423035,176.757004 412.743561,180.007401 413.191559,184.079102 
	C404.722748,173.955063 400.171844,163.653778 402.152100,151.287796 
	C405.677094,151.260971 406.380402,150.390884 404.843170,147.011551 
	C402.158966,141.110992 399.229706,135.320465 396.324066,129.523438 
	C395.790161,128.458282 394.881256,127.581100 393.487274,125.754913 
	C392.056824,128.669159 390.667175,130.585312 390.198761,132.705048 
	C389.704132,134.943314 390.087799,137.375656 390.087799,139.828476 
	C385.474365,135.116440 381.237854,130.789368 377.001343,126.462288 
	C376.527283,126.757324 376.053223,127.052368 375.579163,127.347404 
	C374.969452,134.921783 373.107361,142.562683 378.252136,149.664078 
	C383.232147,156.538025 388.150604,163.464890 392.820190,170.550354 
	C394.215027,172.666824 395.313751,175.355057 395.471222,177.849319 
	C396.499451,194.138367 397.531403,210.439667 397.880249,226.751556 
	C397.986694,231.729340 396.352264,236.885971 394.764526,241.713867 
	C393.481293,245.615860 390.686798,245.841629 388.105469,242.560303 
	C385.543091,239.303055 383.354309,235.751923 380.408813,231.891785 
M255.943268,248.078171 
	C257.715607,244.642899 260.631805,243.513367 264.379089,242.847916 
	C273.201904,241.281128 281.936676,239.186401 290.649811,237.069611 
	C291.918121,236.761475 293.409668,235.359879 293.874451,234.118484 
	C295.535736,229.681366 296.799316,225.095322 298.532867,219.542175 
	C286.087433,219.542175 273.506287,219.542175 260.925171,219.542175 
	C260.880951,218.975998 260.836731,218.409821 260.792511,217.843643 
	C264.504425,216.863312 268.284668,216.085953 271.915009,214.863419 
	C281.628693,211.592361 286.512726,204.541550 286.296783,194.489594 
	C286.148376,187.584152 280.790070,181.427307 274.587921,181.035919 
	C269.079163,180.688293 263.129944,186.820374 262.577820,193.596817 
	C262.389587,195.907074 263.024719,198.352417 262.491547,200.543259 
	C262.120361,202.068436 260.607269,204.146851 259.247070,204.468811 
	C248.325729,207.053909 238.501862,211.222153 231.588593,222.562729 
	C229.467117,206.848206 228.288605,192.060059 218.839005,179.704788 
	C214.091644,183.426575 212.968445,187.573257 214.655441,192.552902 
	C216.308502,197.432373 218.113861,202.265091 219.608353,207.192368 
	C222.377853,216.323349 225.105408,225.819031 221.594879,235.047684 
	C217.854965,244.879440 210.680191,252.544449 201.742615,258.190491 
	C199.677841,259.494812 196.636276,260.137146 194.250595,259.764099 
	C192.404373,259.475464 190.357208,257.389862 189.443985,255.576920 
	C189.017166,254.729599 190.840149,252.437454 192.021469,251.145966 
	C196.935379,245.773788 202.590164,240.971588 206.866776,235.147827 
	C214.422653,224.858505 214.737442,213.574554 209.087555,202.132858 
	C208.966293,201.887299 209.072327,201.529495 209.072327,201.137451 
	C210.282700,200.970596 211.464706,200.807663 213.720520,200.496704 
	C211.115097,195.862625 209.207855,191.611008 206.521027,187.928162 
	C203.717529,184.085419 198.759064,184.875793 197.074814,189.347275 
	C195.088715,194.620132 195.452026,199.634537 199.580780,204.188354 
	C206.992310,212.362900 207.020218,218.328033 199.779449,226.471420 
	C196.277679,230.409729 192.339706,233.960205 188.599213,237.686279 
	C188.271957,237.392288 187.944687,237.098312 187.617432,236.804321 
	C187.617432,233.970261 187.617432,231.136200 187.617432,228.302139 
	C187.200058,228.195663 186.782684,228.089172 186.365311,227.982681 
	C184.909882,231.936478 183.691010,236.000671 181.915604,239.805161 
	C180.738083,242.328369 179.182434,244.995407 177.073273,246.707886 
	C168.165573,253.940323 158.969986,260.817383 149.927994,267.886261 
	C148.775482,268.787292 147.907425,270.052155 146.907578,271.148499 
	C147.275604,271.763947 147.643616,272.379425 148.011627,272.994904 
	C158.407013,268.884430 168.802383,264.773956 179.410065,260.579529 
	C179.824234,261.441772 180.325058,262.449615 180.796402,263.471069 
	C185.445816,273.546509 194.768234,276.491516 204.276184,270.815308 
	C212.277725,266.038391 218.746735,259.669617 223.808853,251.837250 
	C224.902206,250.145554 226.313309,248.659225 228.020233,246.525589 
	C229.447037,248.702560 230.314453,250.072418 231.227219,251.411362 
	C238.549957,262.153168 248.735550,267.879028 261.658813,269.023041 
	C265.156036,269.332611 266.411957,267.532623 267.105469,264.639618 
	C267.972839,261.021423 265.480652,259.736542 263.004669,258.137695 
	C259.563477,255.915558 254.570938,254.733154 255.943268,248.078171 
M183.500015,374.257538 
	C240.274689,374.257538 297.049347,374.257538 353.743652,374.257538 
	C353.743652,376.827362 353.499512,379.332855 353.790863,381.774414 
	C354.567383,388.281677 356.138367,389.189911 361.947815,387.066071 
	C362.837616,386.740784 363.919800,386.909698 364.913269,386.904999 
	C372.239777,386.870300 379.567963,386.763763 386.891663,386.897278 
	C388.346527,386.923798 390.050659,387.560120 391.179718,388.480011 
	C394.475677,391.165344 399.826904,390.887512 401.790833,387.121460 
	C405.505005,379.999023 403.945923,372.820831 400.554565,366.059845 
	C397.626373,360.222198 392.189606,362.242371 387.281433,362.229553 
	C378.559937,362.206787 369.839722,361.697266 360.346252,361.364258 
	C364.064056,354.997467 359.206299,352.956909 356.561646,349.732147 
	C351.356781,352.594391 352.196503,356.714600 354.124237,361.525543 
	C277.835754,360.829010 202.183960,360.138275 126.134338,359.443909 
	C133.642807,369.707306 143.652496,374.573853 156.039429,374.628510 
	C164.858887,374.667450 173.679764,374.392456 183.500015,374.257538 
M332.243378,196.342896 
	C333.330475,210.117981 334.656342,223.881500 335.325012,237.676865 
	C335.478638,240.846313 334.196381,244.838196 332.141113,247.208115 
	C327.597870,252.446838 322.312012,257.094849 316.995544,261.589325 
	C313.872314,264.229675 310.109100,266.113037 306.694580,268.297943 
	C308.699127,274.100800 312.118073,276.426147 317.274689,274.703064 
	C320.805908,273.523102 324.604553,271.795868 327.129791,269.193634 
	C336.411133,259.629181 342.536469,248.373825 342.785095,234.632156 
	C343.228912,210.100983 341.428131,185.737534 337.352142,161.531296 
	C336.766754,158.054840 335.185852,153.933731 340.107605,151.690262 
	C340.612793,151.459991 340.747253,149.459030 340.414551,148.501923 
	C338.100433,141.844589 335.617371,135.245987 332.747803,127.427986 
	C328.154114,134.604935 327.103851,140.956131 327.723572,147.687088 
	C329.188385,163.597229 330.686890,179.504272 332.243378,196.342896 
M356.599670,168.824341 
	C355.915771,163.765335 355.231873,158.706345 354.538635,153.578247 
	C356.611603,153.029648 358.077545,152.641693 360.176819,152.086121 
	C355.939606,143.714355 351.945160,135.822250 347.561371,127.160942 
	C343.233795,136.038834 342.559479,144.683456 344.268250,153.148987 
	C350.771576,185.367569 354.567413,217.845215 355.072357,250.709595 
	C355.083069,251.406235 355.406586,252.098068 355.934021,254.159393 
	C357.877350,250.830048 359.380646,248.693619 360.441895,246.356491 
	C364.039520,238.433517 363.242096,230.047180 362.421143,221.787247 
	C360.694092,204.410309 358.659058,187.063965 356.599670,168.824341 
M170.215485,167.052902 
	C171.883240,166.511780 174.060928,166.462265 175.134659,165.348480 
	C181.350540,158.900696 187.306168,152.201996 193.342133,145.596680 
	C192.044907,143.833862 191.189728,142.671753 190.306488,141.471527 
	C190.926285,140.523651 191.504608,139.713211 192.006714,138.858032 
	C193.874435,135.676987 194.418839,131.803970 191.369080,129.867508 
	C189.310577,128.560440 184.121506,128.682465 183.034149,130.157104 
	C181.348312,132.443405 180.455597,138.122955 181.877182,139.390030 
	C187.114685,144.058197 183.468201,146.370880 180.500412,149.227829 
	C178.340271,151.307312 176.133209,153.338608 173.925613,155.368042 
	C170.193756,158.798752 166.444901,162.210983 161.512650,166.719147 
	C165.205856,166.880920 167.280975,166.971817 170.215485,167.052902 
M376.617157,171.274872 
	C376.390869,172.440903 376.164612,173.606949 376.095245,173.964371 
	C373.184784,172.919205 370.781891,171.226669 368.866760,171.665054 
	C367.624023,171.949493 366.333862,175.364700 366.390198,177.339355 
	C366.538879,182.549362 375.378448,191.135788 380.540771,191.907227 
	C383.041107,186.502396 377.827728,178.646393 386.281738,174.611130 
	C385.553223,171.250229 386.564728,166.149551 381.176392,165.056351 
	C377.674347,164.345825 376.399231,167.270737 376.617157,171.274872 
M79.252556,220.519485 
	C89.161491,215.178528 99.070427,209.837570 110.704185,203.566925 
	C107.438606,201.470184 105.444031,199.142960 103.294739,198.990021 
	C93.811165,198.315201 79.907921,210.848938 79.252556,220.519485 
M74.247017,264.815948 
	C74.629738,266.260590 74.774994,267.827515 75.443222,269.125153 
	C76.968063,272.086212 79.657784,273.047119 82.594818,271.733093 
	C86.657845,269.915283 87.866776,260.457092 84.557213,256.981415 
	C83.298103,258.315338 82.049026,259.638641 79.749969,262.074310 
	C79.749969,253.042496 79.749969,245.539749 79.749969,237.127838 
	C74.050850,245.888687 73.092453,254.706055 74.247017,264.815948 
M391.648804,192.963043 
	C385.865112,197.390442 380.164185,201.932159 374.267456,206.203506 
	C370.585846,208.870285 369.876740,212.006073 371.875916,217.188828 
	C378.127045,212.136246 383.907074,207.477524 389.671631,202.799774 
	C392.739349,200.310455 393.672119,197.211105 391.648804,192.963043 
M296.613525,259.018005 
	C292.684265,259.018005 288.755005,259.018005 284.005371,259.018005 
	C283.971985,258.716919 283.846191,257.216003 283.629517,255.728302 
	C283.394714,254.116623 283.075104,252.517303 282.792480,250.912598 
	C281.213013,251.579117 279.282867,251.886093 278.140228,253.000519 
	C276.612335,254.490723 275.673218,256.594482 274.583313,258.493347 
	C274.531342,258.583923 275.592773,259.666840 275.921234,259.568817 
	C280.050293,258.336914 279.763123,260.852173 279.683594,263.620728 
	C279.581482,267.174866 281.455231,267.853058 284.530487,266.535248 
	C287.712067,265.171875 291.026886,264.104034 294.146118,262.618530 
	C295.253815,262.091034 295.958038,260.716278 296.613525,259.018005 
M392.666962,229.955307 
	C394.543488,223.282608 393.799988,216.794128 390.949951,210.586823 
	C390.454590,209.507950 388.782654,208.969315 387.654144,208.181152 
	C386.795288,209.468979 385.040100,210.903397 385.222870,212.020874 
	C386.419830,219.339569 388.035797,226.589737 389.668701,234.618362 
	C390.747528,233.001373 391.528137,231.831375 392.666962,229.955307 
M414.785309,261.399384 
	C414.592438,259.818268 414.661743,256.979156 414.161133,256.874817 
	C412.048828,256.434601 409.734894,256.641663 407.577728,257.050171 
	C407.215088,257.118866 406.728973,260.141113 407.200531,260.457855 
	C412.634094,264.107605 408.942841,266.557526 406.449768,269.510284 
	C405.818542,270.257935 406.060730,272.979095 406.746185,273.392242 
	C410.030457,275.371948 418.779205,269.317932 418.843140,266.701263 
	C416.885864,264.653137 415.639069,263.348450 414.785309,261.399384 
M246.974274,187.049576 
	C246.441162,187.981873 245.908035,188.914185 245.175461,190.195267 
	C244.226898,188.648102 243.511307,187.480911 242.753479,186.244858 
	C239.845688,189.270554 239.707962,193.876450 242.248169,196.443924 
	C244.659531,198.881195 251.387161,198.724319 253.805328,196.174484 
	C255.952042,193.910904 255.436188,189.006073 252.411819,185.753250 
	C251.574203,187.294189 250.820206,188.681290 250.057587,190.084244 
	C249.125320,188.768631 248.405548,187.752899 246.974274,187.049576 
M320.961700,146.442657 
	C322.017883,141.366074 321.737793,136.418091 318.251556,132.363724 
	C317.123657,131.052017 314.819611,130.751617 313.053589,129.988617 
	C312.688141,131.893646 311.365936,134.401199 312.121185,135.600510 
	C315.586945,141.104034 318.457855,146.612518 316.769104,153.624374 
	C317.273834,153.653503 317.778564,153.682617 318.283325,153.711746 
	C319.131775,151.553009 319.980225,149.394272 320.961700,146.442657 
M324.737000,171.144531 
	C325.928070,168.016342 326.700775,164.928024 323.688507,161.466095 
	C322.585663,163.272354 321.751709,164.638199 320.828217,166.150681 
	C320.037384,164.809052 319.413239,163.750168 318.558929,162.300888 
	C317.553619,163.756851 316.814789,164.826904 316.007690,165.995819 
	C314.994171,164.620834 314.206238,163.551895 313.167542,162.142776 
	C309.915466,165.976074 310.738129,169.384460 313.072876,172.377396 
	C315.274292,175.199371 320.208191,174.734421 324.737000,171.144531 
M181.530731,178.910690 
	C187.883942,179.819214 189.879684,178.166336 190.491852,171.313370 
	C188.910324,172.151245 187.417816,172.941971 185.066193,174.187851 
	C185.066193,170.318665 185.066193,167.229187 185.066193,164.030640 
	C178.167389,165.879578 176.462601,172.610229 181.530731,178.910690 
M92.140915,132.585480 
	C91.475845,131.264023 91.131813,129.470505 90.062576,128.743317 
	C88.791695,127.878998 86.897491,127.931175 85.273384,127.586220 
	C85.011871,129.084000 84.165894,130.778702 84.592415,132.044662 
	C86.232841,136.913651 88.280754,141.645355 90.188988,146.459229 
	C92.329948,142.745377 93.686211,138.358688 92.140915,132.585480 
M237.230804,128.784683 
	C236.587418,127.428886 235.944031,126.073082 235.300659,124.717270 
	C234.236221,125.850220 232.536606,126.833305 232.227264,128.144409 
	C231.323456,131.975113 230.817688,135.924255 230.505280,139.854736 
	C230.413925,141.003769 231.491852,142.245758 232.033844,143.445145 
	C233.032547,142.510483 234.609833,141.736984 234.923325,140.611496 
	C235.931641,136.991455 236.473541,133.241516 237.230804,128.784683 
M179.271866,230.350418 
	C178.439697,227.374954 177.987885,224.202744 176.597885,221.515839 
	C175.998383,220.356949 173.457703,220.202240 171.798859,219.591354 
	C171.827469,221.326660 171.144287,223.678833 172.015411,224.683945 
	C174.858246,227.964066 175.804382,231.485611 175.248352,235.650955 
	C175.141037,236.454956 175.582550,237.332245 175.770889,238.175720 
	C176.147720,238.226242 176.524551,238.276779 176.901382,238.327301 
	C177.662369,235.918579 178.423340,233.509857 179.271866,230.350418 
M206.290573,128.022293 
	C205.612686,129.878448 204.282471,131.784622 204.420044,133.578232 
	C204.596786,135.882797 205.952057,138.096985 206.799622,140.350098 
	C208.777100,139.161133 210.754593,137.972153 213.618866,136.250000 
	C203.094498,131.916016 215.147461,127.451309 209.946075,121.633362 
	C208.779907,123.731514 207.750870,125.582924 206.290573,128.022293 
M350.484253,234.647675 
	C350.484253,234.647675 350.582733,234.587952 350.484253,234.647675 
z"/>
<path fill="#000000" opacity="1.000000" stroke="none" 
	d="
M513.000000,224.531342 
	C512.009949,222.036392 510.542725,219.141251 510.106232,216.098236 
	C506.954193,194.123810 500.313965,173.245605 491.536316,152.896210 
	C483.262573,133.715057 472.786163,115.781059 459.680634,99.731964 
	C448.947937,86.588669 436.577484,74.698410 424.271881,62.944855 
	C408.322235,47.710777 389.665344,36.187241 369.924225,26.512897 
	C347.200287,15.376781 323.360504,7.617844 298.261017,3.903521 
	C295.103607,3.436273 292.010712,2.532765 288.943970,1.415694 
	C363.593719,1.000000 438.187408,1.000000 513.000000,1.000000 
	C513.000000,75.354088 513.000000,149.708389 513.000000,224.531342 
z"/>
<path fill="#000000" opacity="1.000000" stroke="none" 
	d="
M1.000001,289.468658 
	C1.662402,289.857269 2.810421,290.658936 2.915947,291.580017 
	C5.348278,312.810150 11.209930,333.118927 18.968142,352.960602 
	C28.553921,377.476227 42.030518,399.764923 58.722160,419.937073 
	C77.394417,442.502869 99.236710,461.667175 124.464836,476.814819 
	C141.646240,487.130981 159.625748,495.823547 178.889832,501.242126 
	C193.393204,505.321655 208.340820,507.819702 223.081314,511.064331 
	C223.804123,511.223450 224.436966,511.791199 225.055847,512.584351 
	C150.406296,513.000000 75.812599,513.000000 1.000000,513.000000 
	C1.000000,438.645905 1.000000,364.291626 1.000001,289.468658 
z"/>
<path fill="#000000" opacity="1.000000" stroke="none" 
	d="
M289.468628,513.000000 
	C289.857178,512.337646 290.659454,511.188049 291.579590,511.084381 
	C312.837311,508.688690 333.149841,502.764465 353.007446,495.011780 
	C377.523621,485.440277 399.822296,471.964447 419.971405,455.261261 
	C442.629456,436.478210 461.795044,414.476105 477.046631,389.108887 
	C492.319611,363.706024 502.570129,336.445068 508.640472,307.540314 
	C509.755157,302.232513 510.206909,296.787323 511.052155,291.419312 
	C511.190704,290.539368 511.784363,289.731079 512.583862,288.944824 
	C513.000000,363.593719 513.000000,438.187408 513.000000,513.000000 
	C438.645905,513.000000 364.291626,513.000000 289.468628,513.000000 
z"/>
<path fill="#000000" opacity="1.000000" stroke="none" 
	d="
M224.531342,1.000001 
	C224.308441,1.657550 223.668823,2.821546 222.917740,2.898552 
	C204.307434,4.806587 186.404175,9.652140 168.883926,15.975102 
	C142.441895,25.517889 118.398849,39.292683 96.478661,56.931286 
	C71.840599,76.756897 51.456165,100.249329 35.373501,127.381744 
	C20.543846,152.400284 10.786082,179.445511 5.024654,207.937698 
	C3.934712,213.327805 2.889356,218.726959 1.411712,224.060974 
	C1.000000,149.739456 1.000000,75.478920 1.000000,1.000000 
	C75.354088,1.000000 149.708389,1.000000 224.531342,1.000001 
z"/>
<path fill="#FBFDFA" opacity="1.000000" stroke="none" 
	d="
M100.228210,233.944107 
	C101.044235,227.486282 100.676636,220.746674 105.101532,213.872589 
	C106.016716,216.103607 106.894394,217.423813 107.071983,218.832306 
	C107.571091,222.790833 107.709404,226.793243 108.121681,230.764664 
	C108.927773,238.529678 113.789467,242.037689 121.266197,240.005737 
	C130.050690,237.618378 136.743393,232.408493 140.758163,224.148773 
	C141.727554,222.154419 141.945938,219.795029 141.491241,216.879868 
	C140.111908,217.882980 138.729156,218.881454 137.353821,219.890045 
	C132.263199,223.623199 122.940239,220.873871 123.987350,213.135300 
	C124.626480,208.411926 124.531258,203.264175 126.480141,199.111557 
	C130.384171,190.792984 138.491776,190.401108 144.230576,197.416641 
	C145.383026,198.825485 147.175140,199.711105 148.672333,200.837967 
	C149.443420,198.811630 151.079056,196.680161 150.847519,194.775726 
	C149.141571,180.745087 147.062866,166.759766 145.055252,152.430115 
	C143.601944,152.751556 142.350754,153.028290 141.181091,153.286987 
	C142.418915,159.560043 143.888885,165.531937 144.718857,171.591461 
	C145.746872,179.096985 142.928482,183.558640 136.128769,186.731720 
	C132.133240,188.596222 128.609848,188.689362 125.164459,185.358978 
	C123.894836,184.131714 121.740211,183.819977 119.989258,183.090668 
	C119.447838,184.879425 118.441216,186.669617 118.446754,188.456680 
	C118.468925,195.612595 119.097885,202.774399 118.930046,209.920563 
	C118.802330,215.358398 118.128288,220.840271 117.049995,226.171631 
	C116.601990,228.386719 114.469704,230.261154 113.103325,232.290497 
	C112.593964,232.097336 112.084610,231.904160 111.575249,231.710999 
	C111.424484,229.972397 111.207603,228.236572 111.133987,226.494705 
	C110.740181,217.177628 110.340408,207.860397 110.034615,198.540207 
	C109.929123,195.325012 109.037125,193.217285 105.323074,192.790314 
	C99.504051,192.121368 96.781303,189.091522 96.603546,183.266174 
	C96.425835,177.442276 96.580322,171.608826 96.528801,165.780106 
	C96.513039,163.997528 96.297859,162.216705 96.174004,160.435089 
	C95.609520,160.331314 95.045036,160.227539 94.480553,160.123764 
	C93.747696,163.108200 92.740761,166.056839 92.345039,169.085327 
	C91.722321,173.851044 91.966919,178.773239 90.919952,183.420959 
	C90.445251,185.528275 87.811424,188.543427 86.053612,188.615265 
	C83.846443,188.705475 80.911697,186.663239 79.434372,184.686676 
	C77.847000,182.562881 76.954857,179.470367 76.860542,176.762222 
	C76.552101,167.905502 76.744812,159.031326 76.744812,150.163864 
	C77.186340,150.046280 77.627869,149.928696 78.069397,149.811111 
	C80.074501,158.489243 82.079613,167.167358 84.084717,175.845474 
	C84.772835,175.855591 85.460953,175.865723 86.149063,175.875839 
	C86.806374,174.032272 87.643738,172.230896 88.087433,170.337280 
	C89.449722,164.523178 90.574249,158.652542 91.988754,152.852051 
	C92.370728,151.285675 93.161148,149.589569 94.288651,148.491776 
	C95.731071,147.087387 97.868828,145.199127 99.399948,145.443436 
	C100.749893,145.658829 102.510391,148.456726 102.640587,150.221161 
	C103.079491,156.169250 102.697586,162.173538 102.989388,168.138733 
	C103.128197,170.976410 104.079964,173.774307 104.663475,176.590210 
	C105.462143,176.552032 106.260803,176.513855 107.059464,176.475677 
	C107.382797,174.551529 108.142845,172.582321 107.949753,170.711487 
	C107.301598,164.431595 106.191711,158.200363 105.491379,151.924530 
	C104.847717,146.156540 104.299690,140.359924 104.160706,134.565079 
	C104.121445,132.928604 105.666931,131.254135 106.485580,129.597092 
	C108.005486,130.859085 110.603790,131.931259 110.864891,133.414810 
	C112.242531,141.242142 113.030998,149.173203 114.041428,157.942017 
	C115.023529,163.074722 114.260521,167.901550 118.566734,172.445694 
	C120.115913,166.249084 116.086571,162.411499 115.658279,157.904251 
	C115.723198,153.448532 115.572021,148.973297 115.971855,144.547836 
	C116.109238,143.027222 117.623260,141.630981 118.508377,140.177933 
	C119.804115,141.355896 121.508614,142.303711 122.324135,143.752060 
	C125.681633,149.714828 126.792015,156.182205 126.051315,163.007141 
	C125.484535,168.229645 131.112457,173.840317 137.001678,173.764923 
	C138.177109,169.383194 136.882126,165.498993 134.759933,161.630798 
	C131.201340,155.144440 128.223312,148.484451 131.033325,140.418808 
	C130.993896,140.006683 130.963226,140.076004 131.304810,140.082382 
	C131.788696,139.706253 131.931015,139.323761 132.027008,138.959930 
	C131.980652,138.978592 131.925552,139.061951 131.925552,139.061951 
	C138.256531,138.193573 140.511017,142.822479 143.020996,147.784668 
	C143.386627,148.622742 143.664749,148.901001 143.942886,149.179245 
	C143.949310,148.755814 143.955719,148.332397 143.962128,147.908966 
	C143.665710,144.769867 143.045258,141.616821 143.179657,138.496277 
	C143.279678,136.174026 143.757843,133.414398 145.129761,131.699112 
	C147.649719,128.548431 150.659210,129.096725 152.308319,132.809799 
	C154.662369,138.110092 156.861542,143.506577 158.678421,149.010010 
	C160.354111,154.085785 159.838135,154.491425 154.015030,154.517242 
	C155.560806,167.389755 157.102188,180.225677 158.708817,193.605026 
	C164.052017,190.968231 165.596741,193.212234 165.813324,198.002701 
	C165.945633,200.928986 168.898285,201.694855 171.296051,199.653549 
	C171.900894,199.138611 172.195892,198.276749 172.716263,197.642380 
	C174.325592,195.680466 175.974991,193.751404 177.608826,191.809586 
	C179.203125,193.664993 180.776596,195.539093 182.410797,197.358673 
	C182.707596,197.689117 183.252960,197.796326 184.088303,198.204193 
	C186.494461,195.101959 184.768433,188.432831 192.271133,189.006912 
	C191.541122,194.845581 191.192505,200.762787 189.963242,206.490997 
	C188.951477,211.205795 183.692001,213.385437 179.209259,211.178635 
	C176.449234,209.819916 174.665649,209.608994 172.231857,211.957870 
	C168.553299,215.508072 164.111755,216.309402 158.900177,212.387848 
	C158.900177,219.001297 159.181000,224.756821 158.849945,230.476929 
	C157.632187,251.517883 145.416656,266.512115 124.998001,272.242371 
	C122.448868,272.957733 119.808716,273.498596 117.175858,273.740326 
	C104.738373,274.882416 95.223801,268.260406 93.586006,255.984192 
	C92.660637,249.048004 93.832878,241.782959 94.527573,234.711945 
	C94.716179,232.792252 95.939362,228.773102 99.074417,234.102051 
	C99.746315,239.284348 100.234070,243.737946 100.807205,248.180511 
	C101.723534,255.283279 106.150002,258.927063 112.873695,260.225372 
	C122.641830,262.111542 130.935822,258.892975 138.103256,252.507828 
	C145.773560,245.674667 149.425659,236.664627 150.987213,226.738632 
	C151.580154,222.969589 151.719940,219.129272 152.066269,215.321442 
	C151.462784,215.188843 150.859314,215.056259 150.255844,214.923660 
	C149.598099,216.416168 148.741547,217.855972 148.328705,219.413391 
	C147.692581,221.813171 147.530228,224.340424 146.869965,226.731613 
	C144.147949,236.589706 139.720993,245.410141 130.638733,250.958847 
	C117.517464,258.975189 103.487358,252.458313 100.976303,237.317429 
	C100.788132,236.182846 100.480377,235.068085 100.228210,233.944107 
M132.557587,204.822723 
	C132.397720,206.285141 132.237854,207.747543 132.077988,209.209961 
	C133.488174,209.356125 135.086304,209.958328 136.240265,209.482773 
	C136.969055,209.182419 137.669617,206.578522 137.275223,206.217316 
	C136.197998,205.230804 134.533554,204.885544 132.557587,204.822723 
z"/>
<path fill="#FBFDFA" opacity="1.000000" stroke="none" 
	d="
M380.705261,232.110733 
	C383.354309,235.751923 385.543091,239.303055 388.105469,242.560303 
	C390.686798,245.841629 393.481293,245.615860 394.764526,241.713867 
	C396.352264,236.885971 397.986694,231.729340 397.880249,226.751556 
	C397.531403,210.439667 396.499451,194.138367 395.471222,177.849319 
	C395.313751,175.355057 394.215027,172.666824 392.820190,170.550354 
	C388.150604,163.464890 383.232147,156.538025 378.252136,149.664078 
	C373.107361,142.562683 374.969452,134.921783 375.579163,127.347404 
	C376.053223,127.052368 376.527283,126.757324 377.001343,126.462288 
	C381.237854,130.789368 385.474365,135.116440 390.087799,139.828476 
	C390.087799,137.375656 389.704132,134.943314 390.198761,132.705048 
	C390.667175,130.585312 392.056824,128.669159 393.487274,125.754913 
	C394.881256,127.581100 395.790161,128.458282 396.324066,129.523438 
	C399.229706,135.320465 402.158966,141.110992 404.843170,147.011551 
	C406.380402,150.390884 405.677094,151.260971 402.152100,151.287796 
	C400.171844,163.653778 404.722748,173.955063 413.191559,184.079102 
	C412.743561,180.007401 412.423035,176.757004 412.019379,173.516983 
	C411.587433,170.049652 411.134125,166.583115 410.589813,163.132034 
	C409.293793,154.915543 407.883698,146.716599 406.650787,138.490921 
	C406.385468,136.720612 406.121704,134.603058 406.835052,133.113876 
	C407.920929,130.847137 409.860260,128.989258 411.437134,126.957710 
	C412.852692,128.582321 414.789673,129.988434 415.580322,131.874985 
	C417.499908,136.455200 419.224823,141.179077 420.361420,146.002197 
	C421.048767,148.918854 423.707703,152.703903 418.869263,154.951447 
	C418.602448,155.075394 418.475464,155.901123 418.568542,156.339691 
	C420.241974,164.225464 421.562439,172.218857 423.834534,179.931122 
	C424.975159,183.802795 427.913239,187.131927 429.947815,190.757263 
	C431.635132,193.763840 432.042908,196.320984 426.979614,196.168335 
	C427.264069,203.311417 427.590057,209.962372 431.741516,215.923920 
	C437.651642,224.410965 442.028656,233.467133 440.114105,244.312332 
	C439.924408,245.386795 439.655212,246.447205 439.160706,248.718307 
	C436.582123,244.073318 434.563660,240.437286 432.545197,236.801270 
	C432.234894,236.835876 431.924622,236.870499 431.614319,236.905121 
	C431.614319,238.225281 431.605072,239.545517 431.615753,240.865585 
	C431.758484,258.510681 432.234009,276.161835 431.909698,293.798279 
	C431.747284,302.630554 428.915955,310.818298 421.228546,316.468750 
	C415.949341,320.349091 410.111328,322.491821 403.583435,322.363403 
	C402.160645,322.335419 400.261597,321.470886 399.530518,320.364746 
	C399.064117,319.658966 399.967133,317.371979 400.912781,316.542480 
	C403.263763,314.480225 405.858429,312.609802 408.590271,311.082794 
	C419.245422,305.127258 425.139343,296.648346 424.246796,283.952515 
	C423.397522,271.872528 422.967163,259.763123 422.306183,246.752670 
	C420.294800,248.655594 419.062408,249.821548 417.415771,251.379410 
	C416.771759,235.521637 416.153625,220.301315 415.535522,205.080994 
	C415.022034,205.059891 414.508545,205.038788 413.995056,205.017685 
	C412.984650,208.009338 411.974213,211.000992 410.963806,213.992661 
	C410.670837,213.950058 410.377838,213.907471 410.084869,213.864883 
	C409.674347,209.289886 409.263824,204.714874 408.853302,200.139877 
	C408.278900,200.147781 407.704498,200.155685 407.130096,200.163605 
	C407.130096,201.328339 407.154419,202.493652 407.126312,203.657715 
	C406.800873,217.140396 406.478882,230.623184 406.131317,244.105316 
	C405.960815,250.718582 402.111084,255.190857 396.544525,257.519501 
	C393.977356,258.593414 389.983093,257.830322 387.271088,256.552277 
	C384.412659,255.205215 382.237976,252.324234 379.898712,249.979568 
	C376.915741,246.989731 374.578888,247.091949 373.122772,250.989456 
	C371.681091,254.848251 371.118378,259.026550 369.989777,263.013641 
	C368.735931,267.443085 368.071228,272.881439 362.625793,273.868744 
	C357.101868,274.870361 353.721771,270.333862 351.192780,266.384705 
	C345.140808,256.934204 344.583099,246.834518 349.618378,235.534943 
	C350.377533,240.924194 350.792145,245.371750 351.693573,249.718323 
	C352.260193,252.450516 353.230408,255.225235 354.645966,257.608887 
	C355.528076,259.094238 357.624603,260.797119 359.090668,260.722565 
	C360.450684,260.653351 362.131195,258.570923 362.919708,256.998383 
	C366.637878,249.583618 370.003876,241.992615 373.700714,234.566620 
	C375.012573,231.931427 376.930695,229.649719 380.705261,232.110733 
M431.499542,235.791794 
	C431.592163,235.707443 431.751892,235.628036 431.758545,235.537384 
	C431.765198,235.446777 431.618744,235.344910 431.539368,235.247986 
	C431.446716,235.332321 431.354065,235.416656 431.499542,235.791794 
z"/>
<path fill="#FBFDFB" opacity="1.000000" stroke="none" 
	d="
M255.804504,248.468506 
	C254.570938,254.733154 259.563477,255.915558 263.004669,258.137695 
	C265.480652,259.736542 267.972839,261.021423 267.105469,264.639618 
	C266.411957,267.532623 265.156036,269.332611 261.658813,269.023041 
	C248.735550,267.879028 238.549957,262.153168 231.227219,251.411362 
	C230.314453,250.072418 229.447037,248.702560 228.020233,246.525589 
	C226.313309,248.659225 224.902206,250.145554 223.808853,251.837250 
	C218.746735,259.669617 212.277725,266.038391 204.276184,270.815308 
	C194.768234,276.491516 185.445816,273.546509 180.796402,263.471069 
	C180.325058,262.449615 179.824234,261.441772 179.410065,260.579529 
	C168.802383,264.773956 158.407013,268.884430 148.011627,272.994904 
	C147.643616,272.379425 147.275604,271.763947 146.907578,271.148499 
	C147.907425,270.052155 148.775482,268.787292 149.927994,267.886261 
	C158.969986,260.817383 168.165573,253.940323 177.073273,246.707886 
	C179.182434,244.995407 180.738083,242.328369 181.915604,239.805161 
	C183.691010,236.000671 184.909882,231.936478 186.365311,227.982681 
	C186.782684,228.089172 187.200058,228.195663 187.617432,228.302139 
	C187.617432,231.136200 187.617432,233.970261 187.617432,236.804321 
	C187.944687,237.098312 188.271957,237.392288 188.599213,237.686279 
	C192.339706,233.960205 196.277679,230.409729 199.779449,226.471420 
	C207.020218,218.328033 206.992310,212.362900 199.580780,204.188354 
	C195.452026,199.634537 195.088715,194.620132 197.074814,189.347275 
	C198.759064,184.875793 203.717529,184.085419 206.521027,187.928162 
	C209.207855,191.611008 211.115097,195.862625 213.720520,200.496704 
	C211.464706,200.807663 210.282700,200.970596 209.072327,201.137451 
	C209.072327,201.529495 208.966293,201.887299 209.087555,202.132858 
	C214.737442,213.574554 214.422653,224.858505 206.866776,235.147827 
	C202.590164,240.971588 196.935379,245.773788 192.021469,251.145966 
	C190.840149,252.437454 189.017166,254.729599 189.443985,255.576920 
	C190.357208,257.389862 192.404373,259.475464 194.250595,259.764099 
	C196.636276,260.137146 199.677841,259.494812 201.742615,258.190491 
	C210.680191,252.544449 217.854965,244.879440 221.594879,235.047684 
	C225.105408,225.819031 222.377853,216.323349 219.608353,207.192368 
	C218.113861,202.265091 216.308502,197.432373 214.655441,192.552902 
	C212.968445,187.573257 214.091644,183.426575 218.839005,179.704788 
	C228.288605,192.060059 229.467117,206.848206 231.588593,222.562729 
	C238.501862,211.222153 248.325729,207.053909 259.247070,204.468811 
	C260.607269,204.146851 262.120361,202.068436 262.491547,200.543259 
	C263.024719,198.352417 262.389587,195.907074 262.577820,193.596817 
	C263.129944,186.820374 269.079163,180.688293 274.587921,181.035919 
	C280.790070,181.427307 286.148376,187.584152 286.296783,194.489594 
	C286.512726,204.541550 281.628693,211.592361 271.915009,214.863419 
	C268.284668,216.085953 264.504425,216.863312 260.792511,217.843643 
	C260.836731,218.409821 260.880951,218.975998 260.925171,219.542175 
	C273.506287,219.542175 286.087433,219.542175 298.532867,219.542175 
	C296.799316,225.095322 295.535736,229.681366 293.874451,234.118484 
	C293.409668,235.359879 291.918121,236.761475 290.649811,237.069611 
	C281.936676,239.186401 273.201904,241.281128 264.379089,242.847916 
	C260.631805,243.513367 257.715607,244.642899 255.804504,248.468506 
M240.259567,229.390472 
	C234.661041,228.886414 232.465500,230.956879 234.360748,236.109558 
	C235.910736,240.323486 238.622849,244.204727 241.328079,247.856918 
	C242.582596,249.550613 245.045715,250.349106 247.932068,252.164108 
	C247.932068,249.283920 248.092926,247.959259 247.903488,246.686752 
	C247.183426,241.850143 249.200043,238.850479 253.635620,236.945694 
	C254.998215,236.360535 255.862747,234.615601 256.955353,233.401749 
	C255.447678,232.575851 254.022324,231.316116 252.415802,231.011322 
	C248.686874,230.303879 244.870483,230.057556 240.259567,229.390472 
z"/>
<path fill="#FCFDFC" opacity="1.000000" stroke="none" 
	d="
M183.000000,374.257568 
	C173.679764,374.392456 164.858887,374.667450 156.039429,374.628510 
	C143.652496,374.573853 133.642807,369.707306 126.134338,359.443909 
	C202.183960,360.138275 277.835754,360.829010 354.124237,361.525543 
	C352.196503,356.714600 351.356781,352.594391 356.561646,349.732147 
	C359.206299,352.956909 364.064056,354.997467 360.346252,361.364258 
	C369.839722,361.697266 378.559937,362.206787 387.281433,362.229553 
	C392.189606,362.242371 397.626373,360.222198 400.554565,366.059845 
	C403.945923,372.820831 405.505005,379.999023 401.790833,387.121460 
	C399.826904,390.887512 394.475677,391.165344 391.179718,388.480011 
	C390.050659,387.560120 388.346527,386.923798 386.891663,386.897278 
	C379.567963,386.763763 372.239777,386.870300 364.913269,386.904999 
	C363.919800,386.909698 362.837616,386.740784 361.947815,387.066071 
	C356.138367,389.189911 354.567383,388.281677 353.790863,381.774414 
	C353.499512,379.332855 353.743652,376.827362 353.743652,374.257538 
	C297.049347,374.257538 240.274689,374.257538 183.000000,374.257568 
M363.205780,375.045074 
	C362.344452,375.977173 361.100037,376.792053 360.765381,377.885345 
	C360.564423,378.541931 361.723877,380.354919 362.373383,380.408051 
	C365.814911,380.689606 369.832367,381.679718 372.607025,380.310394 
	C375.740784,378.763855 377.490936,378.470886 380.556519,380.246124 
	C382.513855,381.379639 385.675812,380.749451 388.200989,380.329193 
	C388.731415,380.240906 388.838867,377.611603 389.368530,375.056580 
	C380.336151,375.056580 372.205658,375.056580 363.205780,375.045074 
z"/>
<path fill="#FAFCFA" opacity="1.000000" stroke="none" 
	d="
M273.010712,137.034302 
	C272.966583,134.869965 272.692535,132.677658 272.951508,130.550217 
	C273.156219,128.868591 273.748840,126.089523 274.643005,125.886696 
	C276.254883,125.521080 278.622559,126.236870 279.964630,127.353912 
	C283.997437,130.710495 287.688049,134.478165 291.269684,137.856720 
	C292.309082,134.225616 293.388245,130.455658 294.467377,126.685699 
	C295.281006,126.576363 296.094635,126.467026 296.908234,126.357689 
	C301.241547,135.118027 305.574860,143.878372 309.908173,152.638718 
	C309.204529,152.735123 308.500916,152.831512 307.797272,152.927917 
	C307.209961,154.049637 306.021362,155.232605 306.128418,156.283585 
	C307.181122,166.617020 307.777618,176.764099 313.875458,186.191971 
	C320.517273,196.460876 325.410889,207.895477 330.676086,219.006958 
	C333.969299,225.956772 333.697540,233.342041 331.618866,241.793671 
	C324.428894,227.224152 317.718109,213.625610 311.007294,200.027069 
	C310.570831,200.100418 310.134369,200.173752 309.697906,200.247086 
	C309.697906,201.570343 309.684967,202.893738 309.699921,204.216812 
	C309.852081,217.700424 310.274231,231.188568 310.041901,244.665466 
	C309.939880,250.581909 307.320587,255.739777 301.468353,259.170197 
	C301.468353,253.494064 301.634460,248.409409 301.439148,243.338669 
	C300.657806,223.050262 299.862183,202.761032 298.799683,182.486389 
	C298.651184,179.652985 297.445435,176.621109 295.948181,174.155228 
	C288.613159,162.074875 281.013824,150.154999 273.240936,137.784210 
	C272.973969,137.390030 273.010712,137.034302 273.010712,137.034302 
z"/>
<path fill="#FAFCFA" opacity="1.000000" stroke="none" 
	d="
M272.663879,136.963791 
	C273.010712,137.034302 272.973969,137.390030 272.954285,137.567627 
	C273.633148,141.551147 271.937317,143.355865 267.464264,142.898544 
	C269.043152,149.320145 270.216522,155.157394 271.966064,160.816528 
	C273.048553,164.318100 276.533173,165.012177 280.232910,162.984146 
	C281.604187,162.232452 282.899506,161.342133 284.374207,160.425003 
	C285.796936,165.212814 282.023468,173.929352 278.302887,175.336792 
	C277.625641,175.592957 276.143616,175.544403 276.097870,175.365067 
	C275.646484,173.594467 275.419830,171.766571 275.062958,169.539856 
	C271.466675,168.561356 271.010864,172.103699 269.962189,174.328430 
	C268.021179,178.446274 265.276245,181.112930 260.531403,181.319626 
	C256.822052,181.481232 254.238235,179.977402 252.412491,176.676712 
	C249.401428,171.233032 248.013229,171.155258 243.765671,175.764709 
	C242.523727,177.112488 241.354797,178.532761 240.053299,179.819580 
	C234.410339,185.398956 226.162659,184.359894 223.278244,176.977310 
	C221.405060,172.182999 221.470703,166.622513 220.742401,161.394882 
	C220.523193,159.821396 220.554932,158.212936 220.471710,156.620499 
	C220.009079,156.517197 219.546463,156.413895 219.083832,156.310608 
	C218.397629,158.140060 217.606445,159.938065 217.046906,161.805466 
	C215.856079,165.779648 215.128433,169.927795 213.589294,173.754608 
	C210.970520,180.265823 205.117065,180.987839 201.729019,174.768402 
	C198.863037,169.507339 196.869492,163.419220 196.067734,157.483963 
	C195.258087,151.490463 196.389694,145.234726 197.589691,139.071930 
	C203.190674,147.569687 200.160233,158.439590 207.137833,167.933960 
	C208.359909,164.685806 209.095734,162.523651 209.977844,160.422943 
	C213.044388,153.119919 215.984085,145.753357 219.396393,138.613770 
	C220.158752,137.018677 222.647507,136.248703 224.341446,135.098846 
	C225.348083,136.843857 227.066589,138.524384 227.231476,140.345581 
	C227.785675,146.467056 227.719131,152.642166 228.038269,158.789047 
	C228.139328,160.735092 228.279526,162.874023 229.134964,164.550613 
	C232.079498,170.321793 237.674240,170.599915 241.218628,165.236465 
	C246.406250,157.386459 244.051300,149.156204 241.848877,141.160355 
	C239.998871,134.443924 241.246872,128.860138 247.497742,123.621872 
	C248.701248,129.791260 250.119690,135.928345 251.052551,142.138382 
	C252.159317,149.506149 252.597000,156.982315 253.927002,164.302063 
	C254.197128,165.788834 257.685364,168.143738 258.747955,167.722412 
	C260.778351,166.917343 262.319519,164.530823 263.669708,162.534225 
	C264.188141,161.767609 263.869598,160.194901 263.520935,159.123383 
	C261.989471,154.416840 259.869781,149.855972 258.809418,145.055405 
	C257.846771,140.697083 257.522491,136.062286 257.863220,131.622009 
	C257.989594,129.975372 260.657532,127.553932 262.441467,127.280479 
	C264.181732,127.013718 266.674866,128.654388 268.108856,130.154282 
	C269.900787,132.028503 270.948212,134.614532 272.663879,136.963791 
z"/>
<path fill="#F9FCF9" opacity="1.000000" stroke="none" 
	d="
M332.207581,195.877731 
	C330.686890,179.504272 329.188385,163.597229 327.723572,147.687088 
	C327.103851,140.956131 328.154114,134.604935 332.747803,127.427986 
	C335.617371,135.245987 338.100433,141.844589 340.414551,148.501923 
	C340.747253,149.459030 340.612793,151.459991 340.107605,151.690262 
	C335.185852,153.933731 336.766754,158.054840 337.352142,161.531296 
	C341.428131,185.737534 343.228912,210.100983 342.785095,234.632156 
	C342.536469,248.373825 336.411133,259.629181 327.129791,269.193634 
	C324.604553,271.795868 320.805908,273.523102 317.274689,274.703064 
	C312.118073,276.426147 308.699127,274.100800 306.694580,268.297943 
	C310.109100,266.113037 313.872314,264.229675 316.995544,261.589325 
	C322.312012,257.094849 327.597870,252.446838 332.141113,247.208115 
	C334.196381,244.838196 335.478638,240.846313 335.325012,237.676865 
	C334.656342,223.881500 333.330475,210.117981 332.207581,195.877731 
z"/>
<path fill="#F9FCF9" opacity="1.000000" stroke="none" 
	d="
M356.675049,169.264709 
	C358.659058,187.063965 360.694092,204.410309 362.421143,221.787247 
	C363.242096,230.047180 364.039520,238.433517 360.441895,246.356491 
	C359.380646,248.693619 357.877350,250.830048 355.934021,254.159393 
	C355.406586,252.098068 355.083069,251.406235 355.072357,250.709595 
	C354.567413,217.845215 350.771576,185.367569 344.268250,153.148987 
	C342.559479,144.683456 343.233795,136.038834 347.561371,127.160942 
	C351.945160,135.822250 355.939606,143.714355 360.176819,152.086121 
	C358.077545,152.641693 356.611603,153.029648 354.538635,153.578247 
	C355.231873,158.706345 355.915771,163.765335 356.675049,169.264709 
z"/>
<path fill="#499C41" opacity="1.000000" stroke="none" 
	d="
M100.060440,233.931183 
	C100.480377,235.068085 100.788132,236.182846 100.976303,237.317429 
	C103.487358,252.458313 117.517464,258.975189 130.638733,250.958847 
	C139.720993,245.410141 144.147949,236.589706 146.869965,226.731613 
	C147.530228,224.340424 147.692581,221.813171 148.328705,219.413391 
	C148.741547,217.855972 149.598099,216.416168 150.255844,214.923660 
	C150.859314,215.056259 151.462784,215.188843 152.066269,215.321442 
	C151.719940,219.129272 151.580154,222.969589 150.987213,226.738632 
	C149.425659,236.664627 145.773560,245.674667 138.103256,252.507828 
	C130.935822,258.892975 122.641830,262.111542 112.873695,260.225372 
	C106.150002,258.927063 101.723534,255.283279 100.807205,248.180511 
	C100.234070,243.737946 99.746315,239.284348 99.221634,234.409271 
	C99.445160,233.950073 99.668373,233.928558 100.060440,233.931183 
z"/>
<path fill="#F6FAF6" opacity="1.000000" stroke="none" 
	d="
M169.785782,167.057816 
	C167.280975,166.971817 165.205856,166.880920 161.512650,166.719147 
	C166.444901,162.210983 170.193756,158.798752 173.925613,155.368042 
	C176.133209,153.338608 178.340271,151.307312 180.500412,149.227829 
	C183.468201,146.370880 187.114685,144.058197 181.877182,139.390030 
	C180.455597,138.122955 181.348312,132.443405 183.034149,130.157104 
	C184.121506,128.682465 189.310577,128.560440 191.369080,129.867508 
	C194.418839,131.803970 193.874435,135.676987 192.006714,138.858032 
	C191.504608,139.713211 190.926285,140.523651 190.306488,141.471527 
	C191.189728,142.671753 192.044907,143.833862 193.342133,145.596680 
	C187.306168,152.201996 181.350540,158.900696 175.134659,165.348480 
	C174.060928,166.462265 171.883240,166.511780 169.785782,167.057816 
z"/>
<path fill="#F9FCF9" opacity="1.000000" stroke="none" 
	d="
M376.501282,170.892426 
	C376.399231,167.270737 377.674347,164.345825 381.176392,165.056351 
	C386.564728,166.149551 385.553223,171.250229 386.281738,174.611130 
	C377.827728,178.646393 383.041107,186.502396 380.540771,191.907227 
	C375.378448,191.135788 366.538879,182.549362 366.390198,177.339355 
	C366.333862,175.364700 367.624023,171.949493 368.866760,171.665054 
	C370.781891,171.226669 373.184784,172.919205 376.095245,173.964371 
	C376.164612,173.606949 376.390869,172.440903 376.501282,170.892426 
z"/>
<path fill="#F7FBF7" opacity="1.000000" stroke="none" 
	d="
M78.914604,220.626617 
	C79.907921,210.848938 93.811165,198.315201 103.294739,198.990021 
	C105.444031,199.142960 107.438606,201.470184 110.704185,203.566925 
	C99.070427,209.837570 89.161491,215.178528 78.914604,220.626617 
z"/>
<path fill="#F7FBF7" opacity="1.000000" stroke="none" 
	d="
M74.178543,264.379700 
	C73.092453,254.706055 74.050850,245.888687 79.749969,237.127838 
	C79.749969,245.539749 79.749969,253.042496 79.749969,262.074310 
	C82.049026,259.638641 83.298103,258.315338 84.557213,256.981415 
	C87.866776,260.457092 86.657845,269.915283 82.594818,271.733093 
	C79.657784,273.047119 76.968063,272.086212 75.443222,269.125153 
	C74.774994,267.827515 74.629738,266.260590 74.178543,264.379700 
z"/>
<path fill="#F7FBF7" opacity="1.000000" stroke="none" 
	d="
M391.938538,193.217896 
	C393.672119,197.211105 392.739349,200.310455 389.671631,202.799774 
	C383.907074,207.477524 378.127045,212.136246 371.875916,217.188828 
	C369.876740,212.006073 370.585846,208.870285 374.267456,206.203506 
	C380.164185,201.932159 385.865112,197.390442 391.938538,193.217896 
z"/>
<path fill="#F4F9F4" opacity="1.000000" stroke="none" 
	d="
M296.729980,259.373138 
	C295.958038,260.716278 295.253815,262.091034 294.146118,262.618530 
	C291.026886,264.104034 287.712067,265.171875 284.530487,266.535248 
	C281.455231,267.853058 279.581482,267.174866 279.683594,263.620728 
	C279.763123,260.852173 280.050293,258.336914 275.921234,259.568817 
	C275.592773,259.666840 274.531342,258.583923 274.583313,258.493347 
	C275.673218,256.594482 276.612335,254.490723 278.140228,253.000519 
	C279.282867,251.886093 281.213013,251.579117 282.792480,250.912598 
	C283.075104,252.517303 283.394714,254.116623 283.629517,255.728302 
	C283.846191,257.216003 283.971985,258.716919 284.005371,259.018005 
	C288.755005,259.018005 292.684265,259.018005 296.729980,259.373138 
z"/>
<path fill="#F2F8F2" opacity="1.000000" stroke="none" 
	d="
M392.487854,230.308334 
	C391.528137,231.831375 390.747528,233.001373 389.668701,234.618362 
	C388.035797,226.589737 386.419830,219.339569 385.222870,212.020874 
	C385.040100,210.903397 386.795288,209.468979 387.654144,208.181152 
	C388.782654,208.969315 390.454590,209.507950 390.949951,210.586823 
	C393.799988,216.794128 394.543488,223.282608 392.487854,230.308334 
z"/>
<path fill="#F4F9F4" opacity="1.000000" stroke="none" 
	d="
M414.588776,261.721558 
	C415.639069,263.348450 416.885864,264.653137 418.843140,266.701263 
	C418.779205,269.317932 410.030457,275.371948 406.746185,273.392242 
	C406.060730,272.979095 405.818542,270.257935 406.449768,269.510284 
	C408.942841,266.557526 412.634094,264.107605 407.200531,260.457855 
	C406.728973,260.141113 407.215088,257.118866 407.577728,257.050171 
	C409.734894,256.641663 412.048828,256.434601 414.161133,256.874817 
	C414.661743,256.979156 414.592438,259.818268 414.588776,261.721558 
z"/>
<path fill="#F4F9F4" opacity="1.000000" stroke="none" 
	d="
M247.330017,186.893372 
	C248.405548,187.752899 249.125320,188.768631 250.057587,190.084244 
	C250.820206,188.681290 251.574203,187.294189 252.411819,185.753250 
	C255.436188,189.006073 255.952042,193.910904 253.805328,196.174484 
	C251.387161,198.724319 244.659531,198.881195 242.248169,196.443924 
	C239.707962,193.876450 239.845688,189.270554 242.753479,186.244858 
	C243.511307,187.480911 244.226898,188.648102 245.175461,190.195267 
	C245.908035,188.914185 246.441162,187.981873 247.330017,186.893372 
z"/>
<path fill="#F4F9F4" opacity="1.000000" stroke="none" 
	d="
M320.895203,146.839096 
	C319.980225,149.394272 319.131775,151.553009 318.283325,153.711746 
	C317.778564,153.682617 317.273834,153.653503 316.769104,153.624374 
	C318.457855,146.612518 315.586945,141.104034 312.121185,135.600510 
	C311.365936,134.401199 312.688141,131.893646 313.053589,129.988617 
	C314.819611,130.751617 317.123657,131.052017 318.251556,132.363724 
	C321.737793,136.418091 322.017883,141.366074 320.895203,146.839096 
z"/>
<path fill="#F2F8F2" opacity="1.000000" stroke="none" 
	d="
M324.493896,171.462128 
	C320.208191,174.734421 315.274292,175.199371 313.072876,172.377396 
	C310.738129,169.384460 309.915466,165.976074 313.167542,162.142776 
	C314.206238,163.551895 314.994171,164.620834 316.007690,165.995819 
	C316.814789,164.826904 317.553619,163.756851 318.558929,162.300888 
	C319.413239,163.750168 320.037384,164.809052 320.828217,166.150681 
	C321.751709,164.638199 322.585663,163.272354 323.688507,161.466095 
	C326.700775,164.928024 325.928070,168.016342 324.493896,171.462128 
z"/>
<path fill="#F7FBF7" opacity="1.000000" stroke="none" 
	d="
M131.031433,140.001572 
	C129.056213,140.082352 126.906670,140.648834 125.067345,140.125336 
	C123.038177,139.547791 120.307419,138.362045 119.660774,136.734573 
	C118.735725,134.406418 119.425140,131.436783 119.425140,128.741074 
	C119.928673,128.672470 120.432213,128.603882 120.935745,128.535294 
	C121.723518,129.616348 122.511292,130.697403 123.567696,132.147095 
	C124.391495,130.921463 125.107681,129.855927 126.111954,128.361771 
	C127.030235,129.990112 127.716698,131.207367 128.448730,132.505447 
	C129.215347,131.052719 129.938797,129.681778 131.120163,127.443077 
	C134.091095,131.456039 133.515717,134.793381 131.873108,138.646423 
	C131.925552,139.061951 131.980652,138.978592 131.624420,138.906647 
	C131.166550,139.248474 131.064896,139.662231 130.963226,140.076004 
	C130.963226,140.076004 130.993896,140.006683 131.031433,140.001572 
z"/>
<path fill="#F4F9F4" opacity="1.000000" stroke="none" 
	d="
M181.219620,178.711823 
	C176.462601,172.610229 178.167389,165.879578 185.066193,164.030640 
	C185.066193,167.229187 185.066193,170.318665 185.066193,174.187851 
	C187.417816,172.941971 188.910324,172.151245 190.491852,171.313370 
	C189.879684,178.166336 187.883942,179.819214 181.219620,178.711823 
z"/>
<path fill="#F4F9F4" opacity="1.000000" stroke="none" 
	d="
M92.234924,132.981354 
	C93.686211,138.358688 92.329948,142.745377 90.188988,146.459229 
	C88.280754,141.645355 86.232841,136.913651 84.592415,132.044662 
	C84.165894,130.778702 85.011871,129.084000 85.273384,127.586212 
	C86.897491,127.931175 88.791695,127.878998 90.062576,128.743317 
	C91.131813,129.470505 91.475845,131.264023 92.234924,132.981354 
z"/>
<path fill="#F4F9F4" opacity="1.000000" stroke="none" 
	d="
M237.213074,129.163177 
	C236.473541,133.241516 235.931641,136.991455 234.923325,140.611496 
	C234.609833,141.736984 233.032547,142.510483 232.033844,143.445145 
	C231.491852,142.245758 230.413925,141.003769 230.505280,139.854736 
	C230.817688,135.924255 231.323456,131.975113 232.227264,128.144409 
	C232.536606,126.833305 234.236221,125.850220 235.300659,124.717278 
	C235.944031,126.073082 236.587418,127.428886 237.213074,129.163177 
z"/>
<path fill="#F0F7EF" opacity="1.000000" stroke="none" 
	d="
M179.228088,230.725769 
	C178.423340,233.509857 177.662369,235.918579 176.901382,238.327301 
	C176.524551,238.276779 176.147720,238.226242 175.770889,238.175720 
	C175.582550,237.332245 175.141037,236.454956 175.248352,235.650955 
	C175.804382,231.485611 174.858246,227.964066 172.015411,224.683945 
	C171.144287,223.678833 171.827469,221.326660 171.798859,219.591339 
	C173.457703,220.202240 175.998383,220.356949 176.597885,221.515839 
	C177.987885,224.202744 178.439697,227.374954 179.228088,230.725769 
z"/>
<path fill="#F0F7EF" opacity="1.000000" stroke="none" 
	d="
M206.506195,127.728317 
	C207.750870,125.582924 208.779907,123.731514 209.946075,121.633362 
	C215.147461,127.451309 203.094498,131.916016 213.618866,136.250000 
	C210.754593,137.972153 208.777100,139.161133 206.799622,140.350098 
	C205.952057,138.096985 204.596786,135.882797 204.420044,133.578232 
	C204.282471,131.784622 205.612686,129.878448 206.506195,127.728317 
z"/>
<path fill="#55A34E" opacity="1.000000" stroke="none" 
	d="
M115.286919,157.909515 
	C116.086571,162.411499 120.115913,166.249084 118.566734,172.445694 
	C114.260521,167.901550 115.023529,163.074722 114.116943,158.393311 
	C114.421776,157.952148 114.668663,157.933472 115.286919,157.909515 
z"/>
<path fill="#FAFCFA" opacity="1.000000" stroke="none" 
	d="
M143.729614,147.975189 
	C143.955719,148.332397 143.949310,148.755814 143.942886,149.179245 
	C143.664749,148.901001 143.386627,148.622742 143.069580,148.129242 
	C143.030685,147.914001 143.497101,148.041397 143.729614,147.975189 
z"/>
<path fill="#FBFDFA" opacity="1.000000" stroke="none" 
	d="
M350.533508,234.617813 
	C350.582733,234.587952 350.484253,234.647675 350.533508,234.617813 
z"/>
<path fill="#55A34E" opacity="1.000000" stroke="none" 
	d="
M132.829651,204.554504 
	C134.533554,204.885544 136.197998,205.230804 137.275223,206.217316 
	C137.669617,206.578522 136.969055,209.182419 136.240265,209.482773 
	C135.086304,209.958328 133.488174,209.356125 132.077988,209.209961 
	C132.237854,207.747543 132.397720,206.285141 132.829651,204.554504 
z"/>
<path fill="#3E9636" opacity="1.000000" stroke="none" 
	d="
M131.304810,140.082382 
	C131.064896,139.662231 131.166550,139.248474 131.670776,138.887970 
	C131.931015,139.323761 131.788696,139.706253 131.304810,140.082382 
z"/>
<path fill="#3E9636" opacity="1.000000" stroke="none" 
	d="
M431.380493,235.646393 
	C431.354065,235.416656 431.446716,235.332321 431.539368,235.247986 
	C431.618744,235.344910 431.765198,235.446777 431.758545,235.537384 
	C431.751892,235.628036 431.592163,235.707443 431.380493,235.646393 
z"/>
<path fill="#43993B" opacity="1.000000" stroke="none" 
	d="
M240.674561,229.507401 
	C244.870483,230.057556 248.686874,230.303879 252.415802,231.011322 
	C254.022324,231.316116 255.447678,232.575851 256.955353,233.401749 
	C255.862747,234.615601 254.998215,236.360535 253.635620,236.945694 
	C249.200043,238.850479 247.183426,241.850143 247.903488,246.686752 
	C248.092926,247.959259 247.932068,249.283920 247.932068,252.164108 
	C245.045715,250.349106 242.582596,249.550613 241.328079,247.856918 
	C238.622849,244.204727 235.910736,240.323486 234.360748,236.109558 
	C232.465500,230.956879 234.661041,228.886414 240.674561,229.507401 
z"/>
<path fill="#4E9F46" opacity="1.000000" stroke="none" 
	d="
M363.640472,375.050842 
	C372.205658,375.056580 380.336151,375.056580 389.368530,375.056580 
	C388.838867,377.611603 388.731415,380.240906 388.200989,380.329193 
	C385.675812,380.749451 382.513855,381.379639 380.556519,380.246124 
	C377.490936,378.470886 375.740784,378.763855 372.607025,380.310394 
	C369.832367,381.679718 365.814911,380.689606 362.373383,380.408051 
	C361.723877,380.354919 360.564423,378.541931 360.765381,377.885345 
	C361.100037,376.792053 362.344452,375.977173 363.640472,375.050842 
z"/>
</svg>