<svg version="1.1" id="Layer_1" xmlns="http://www.w3.org/2000/svg" xmlns:xlink="http://www.w3.org/1999/xlink" x="0px" y="0px"
	 width="100%" viewBox="0 0 512 512" enable-background="new 0 0 512 512" xml:space="preserve">
<path fill="#F5F5F5" opacity="1.000000" stroke="none" 
	d="
M225.000000,0.999998 
	C246.020889,1.000000 267.041779,1.000000 288.225739,1.361018 
	C289.391205,2.147612 290.359253,2.805355 291.401825,2.959684 
	C296.699432,3.743892 302.180389,3.801942 307.295441,5.210132 
	C321.925323,9.237776 336.409363,13.795030 350.964142,18.603458 
	C350.969025,177.993637 350.960541,336.924377 350.568481,495.923462 
	C331.117493,503.658600 311.367157,508.621307 290.966705,511.076447 
	C290.244446,511.163330 289.652618,512.334290 289.000000,513.000000 
	C267.979095,513.000000 246.958206,513.000000 225.774292,512.638672 
	C221.373306,511.504333 217.050751,511.039551 212.912186,509.904144 
	C196.256989,505.334595 179.658646,500.557800 163.023132,495.398102 
	C163.017349,336.006805 163.027740,177.074997 163.422211,18.073486 
	C182.922897,10.481411 202.618591,5.255593 223.062073,2.922696 
	C223.771927,2.841691 224.356842,1.665651 225.000000,0.999998 
z"/>
<path fill="#008751" opacity="1.000000" stroke="none" 
	d="
M163.038116,18.143188 
	C163.027740,177.074997 163.017349,336.006805 162.675629,495.328064 
	C151.683182,490.516937 140.878143,485.588898 130.394333,480.052582 
	C114.294777,471.550659 99.553772,460.892120 86.294762,448.520447 
	C75.778999,438.708496 65.950821,428.042542 56.704559,417.012085 
	C38.764603,395.610382 25.415947,371.428619 15.966873,345.149109 
	C9.664187,327.620209 4.815353,309.716309 2.907534,291.104675 
	C2.829755,290.345886 1.660655,289.699005 1.000003,289.000000 
	C1.000000,267.979095 1.000000,246.958206 1.416221,225.506592 
	C2.873397,220.190689 4.143301,215.341415 4.916101,210.414169 
	C8.464502,187.790207 15.855340,166.392487 25.668575,145.819077 
	C35.284966,125.658356 47.411076,107.098434 62.159245,90.257904 
	C73.749001,77.023880 86.179749,64.717628 100.128784,53.954048 
	C119.427437,39.062515 140.340668,27.045191 163.038116,18.143188 
z"/>
<path fill="#008751" opacity="1.000000" stroke="none" 
	d="
M350.952057,495.855103 
	C350.960541,336.924377 350.969025,177.993637 351.312439,18.670824 
	C364.445404,24.695194 377.581421,30.524134 389.970764,37.651066 
	C415.333405,52.240837 436.787506,71.725044 455.354950,94.143341 
	C469.983124,111.805321 482.058868,131.210800 491.292450,152.400528 
	C500.225830,172.901306 506.768738,193.969177 510.098663,216.075623 
	C510.558289,219.126846 512.008423,222.028885 513.000000,225.000000 
	C513.000000,246.020889 513.000000,267.041779 512.583618,288.490540 
	C511.441650,292.527893 510.633087,296.122925 510.004028,299.749115 
	C505.732941,324.369232 498.389740,347.995331 487.254761,370.402802 
	C477.678772,389.673065 465.994049,407.522034 451.823517,423.763458 
	C437.746826,439.897308 422.332001,454.505463 404.755463,466.805634 
	C387.936401,478.575745 370.111206,488.440063 350.952057,495.855103 
z"/>
<path fill="#000000" opacity="1.000000" stroke="none" 
	d="
M1.000003,289.468658 
	C1.660655,289.699005 2.829755,290.345886 2.907534,291.104675 
	C4.815353,309.716309 9.664187,327.620209 15.966873,345.149109 
	C25.415947,371.428619 38.764603,395.610382 56.704559,417.012085 
	C65.950821,428.042542 75.778999,438.708496 86.294762,448.520447 
	C99.553772,460.892120 114.294777,471.550659 130.394333,480.052582 
	C140.878143,485.588898 151.683182,490.516937 162.691803,495.787537 
	C179.658646,500.557800 196.256989,505.334595 212.912186,509.904144 
	C217.050751,511.039551 221.373306,511.504333 225.305634,512.638672 
	C150.406296,513.000000 75.812599,513.000000 1.000000,513.000000 
	C1.000000,438.645905 1.000000,364.291626 1.000003,289.468658 
z"/>
<path fill="#000000" opacity="1.000000" stroke="none" 
	d="
M513.000000,224.531342 
	C512.008423,222.028885 510.558289,219.126846 510.098663,216.075623 
	C506.768738,193.969177 500.225830,172.901306 491.292450,152.400528 
	C482.058868,131.210800 469.983124,111.805321 455.354950,94.143341 
	C436.787506,71.725044 415.333405,52.240837 389.970764,37.651066 
	C377.581421,30.524134 364.445404,24.695194 351.299072,18.211372 
	C336.409363,13.795030 321.925323,9.237776 307.295441,5.210132 
	C302.180389,3.801942 296.699432,3.743892 291.401825,2.959684 
	C290.359253,2.805355 289.391205,2.147612 288.694397,1.361018 
	C363.593719,1.000000 438.187408,1.000000 513.000000,1.000000 
	C513.000000,75.354088 513.000000,149.708389 513.000000,224.531342 
z"/>
<path fill="#000000" opacity="1.000000" stroke="none" 
	d="
M163.422211,18.073486 
	C140.340668,27.045191 119.427437,39.062515 100.128784,53.954048 
	C86.179749,64.717628 73.749001,77.023880 62.159245,90.257904 
	C47.411076,107.098434 35.284966,125.658356 25.668575,145.819077 
	C15.855340,166.392487 8.464502,187.790207 4.916101,210.414169 
	C4.143301,215.341415 2.873397,220.190689 1.416221,225.037933 
	C1.000000,150.406296 1.000000,75.812576 1.000000,1.000000 
	C75.354088,1.000000 149.708389,1.000000 224.531342,0.999998 
	C224.356842,1.665651 223.771927,2.841691 223.062073,2.922696 
	C202.618591,5.255593 182.922897,10.481411 163.422211,18.073486 
z"/>
<path fill="#000000" opacity="1.000000" stroke="none" 
	d="
M350.568481,495.923462 
	C370.111206,488.440063 387.936401,478.575745 404.755463,466.805634 
	C422.332001,454.505463 437.746826,439.897308 451.823517,423.763458 
	C465.994049,407.522034 477.678772,389.673065 487.254761,370.402802 
	C498.389740,347.995331 505.732941,324.369232 510.004028,299.749115 
	C510.633087,296.122925 511.441650,292.527893 512.583618,288.959229 
	C513.000000,363.593719 513.000000,438.187408 513.000000,513.000000 
	C438.645905,513.000000 364.291626,513.000000 289.468658,513.000000 
	C289.652618,512.334290 290.244446,511.163330 290.966705,511.076447 
	C311.367157,508.621307 331.117493,503.658600 350.568481,495.923462 
z"/>
</svg>